  0
SECTION
  2
HEADER
  9
$ACADVER
  1
AC1032
  9
$ACADMAINTVER
 90
4
  9
$DWGCODEPAGE
  3
ANSI_1252
  9
$LASTSAVEDBY
  1
ezdxf
  9
$REQUIREDVERSIONS
160
0
  9
$INSBASE
 10
0.0
 20
0.0
 30
0.0
  9
$EXTMIN
 10
1e+20
 20
1e+20
 30
1e+20
  9
$EXTMAX
 10
-1e+20
 20
-1e+20
 30
-1e+20
  9
$LIMMIN
 10
0.0
 20
0.0
  9
$LIMMAX
 10
420.0
 20
297.0
  9
$ORTHOMODE
 70
0
  9
$REGENMODE
 70
1
  9
$FILLMODE
 70
1
  9
$QTEXTMODE
 70
0
  9
$MIRRTEXT
 70
1
  9
$LTSCALE
 40
30.0
  9
$ATTMODE
 70
1
  9
$TEXTSIZE
 40
2.4
  9
$TRACEWID
 40
1.0
  9
$TEXTSTYLE
  7
SURVEY
  9
$CLAYER
  8
0
  9
$CELTYPE
  6
ByLayer
  9
$CECOLOR
 62
256
  9
$CELTSCALE
 40
1.0
  9
$DISPSILH
 70
0
  9
$DIMSCALE
 40
30.0
  9
$DIMASZ
 40
2.5
  9
$DIMEXO
 40
0.625
  9
$DIMDLI
 40
3.75
  9
$DIMRND
 40
0.0
  9
$DIMDLE
 40
0.0
  9
$DIMEXE
 40
1.25
  9
$DIMTP
 40
0.0
  9
$DIMTM
 40
0.0
  9
$DIMTXT
 40
2.5
  9
$DIMCEN
 40
2.5
  9
$DIMTSZ
 40
0.0
  9
$DIMTOL
 70
0
  9
$DIMLIM
 70
0
  9
$DIMTIH
 70
0
  9
$DIMTOH
 70
0
  9
$DIMSE1
 70
0
  9
$DIMSE2
 70
0
  9
$DIMTAD
 70
1
  9
$DIMZIN
 70
8
  9
$DIMBLK
  1

  9
$DIMASO
 70
1
  9
$DIMSHO
 70
1
  9
$DIMPOST
  1

  9
$DIMAPOST
  1

  9
$DIMALT
 70
0
  9
$DIMALTD
 70
3
  9
$DIMALTF
 40
0.03937007874
  9
$DIMLFAC
 40
1.0
  9
$DIMTOFL
 70
1
  9
$DIMTVP
 40
0.0
  9
$DIMTIX
 70
0
  9
$DIMSOXD
 70
0
  9
$DIMSAH
 70
0
  9
$DIMBLK1
  1

  9
$DIMBLK2
  1

  9
$DIMSTYLE
  2
SRV-30
  9
$DIMCLRD
 70
0
  9
$DIMCLRE
 70
0
  9
$DIMCLRT
 70
0
  9
$DIMTFAC
 40
1.0
  9
$DIMGAP
 40
0.625
  9
$DIMJUST
 70
0
  9
$DIMSD1
 70
0
  9
$DIMSD2
 70
0
  9
$DIMTOLJ
 70
0
  9
$DIMTZIN
 70
8
  9
$DIMALTZ
 70
0
  9
$DIMALTTZ
 70
0
  9
$DIMUPT
 70
0
  9
$DIMDEC
 70
2
  9
$DIMTDEC
 70
2
  9
$DIMALTU
 70
2
  9
$DIMALTTD
 70
3
  9
$DIMTXSTY
  7
Standard
  9
$DIMAUNIT
 70
0
  9
$DIMADEC
 70
0
  9
$DIMALTRND
 40
0.0
  9
$DIMAZIN
 70
0
  9
$DIMDSEP
 70
44
  9
$DIMATFIT
 70
3
  9
$DIMFRAC
 70
0
  9
$DIMLDRBLK
  1

  9
$DIMLUNIT
 70
2
  9
$DIMLWD
 70
-2
  9
$DIMLWE
 70
-2
  9
$DIMTMOVE
 70
0
  9
$DIMFXL
 40
1.0
  9
$DIMFXLON
 70
0
  9
$DIMJOGANG
 40
0.785398163397
  9
$DIMTFILL
 70
0
  9
$DIMTFILLCLR
 70
0
  9
$DIMARCSYM
 70
0
  9
$DIMLTYPE
  6

  9
$DIMLTEX1
  6

  9
$DIMLTEX2
  6

  9
$DIMTXTDIRECTION
 70
0
  9
$LUNITS
 70
2
  9
$LUPREC
 70
2
  9
$SKETCHINC
 40
1.0
  9
$FILLETRAD
 40
10.0
  9
$AUNITS
 70
4
  9
$AUPREC
 70
4
  9
$MENU
  1
.
  9
$ELEVATION
 40
0.0
  9
$PELEVATION
 40
0.0
  9
$THICKNESS
 40
0.0
  9
$LIMCHECK
 70
0
  9
$CHAMFERA
 40
0.0
  9
$CHAMFERB
 40
0.0
  9
$CHAMFERC
 40
0.0
  9
$CHAMFERD
 40
0.0
  9
$SKPOLY
 70
0
  9
$TDCREATE
 40
2461313.9259837964
  9
$TDUCREATE
 40
2458532.153996898
  9
$TDUPDATE
 40
2461313.9259837964
  9
$TDUUPDATE
 40
2458532.1544311
  9
$TDINDWG
 40
0.0
  9
$TDUSRTIMER
 40
0.0
  9
$USRTIMER
 70
1
  9
$ANGBASE
 50
0.0
  9
$ANGDIR
 70
0
  9
$PDMODE
 70
0
  9
$PDSIZE
 40
0.0
  9
$PLINEWID
 40
0.0
  9
$SPLFRAME
 70
0
  9
$SPLINETYPE
 70
6
  9
$SPLINESEGS
 70
8
  9
$HANDSEED
  5
1E9
  9
$SURFTAB1
 70
6
  9
$SURFTAB2
 70
6
  9
$SURFTYPE
 70
6
  9
$SURFU
 70
6
  9
$SURFV
 70
6
  9
$UCSBASE
  2

  9
$UCSNAME
  2

  9
$UCSORG
 10
0.0
 20
0.0
 30
0.0
  9
$UCSXDIR
 10
1.0
 20
0.0
 30
0.0
  9
$UCSYDIR
 10
0.0
 20
1.0
 30
0.0
  9
$UCSORTHOREF
  2

  9
$UCSORTHOVIEW
 70
0
  9
$UCSORGTOP
 10
0.0
 20
0.0
 30
0.0
  9
$UCSORGBOTTOM
 10
0.0
 20
0.0
 30
0.0
  9
$UCSORGLEFT
 10
0.0
 20
0.0
 30
0.0
  9
$UCSORGRIGHT
 10
0.0
 20
0.0
 30
0.0
  9
$UCSORGFRONT
 10
0.0
 20
0.0
 30
0.0
  9
$UCSORGBACK
 10
0.0
 20
0.0
 30
0.0
  9
$PUCSBASE
  2

  9
$PUCSNAME
  2

  9
$PUCSORG
 10
0.0
 20
0.0
 30
0.0
  9
$PUCSXDIR
 10
1.0
 20
0.0
 30
0.0
  9
$PUCSYDIR
 10
0.0
 20
1.0
 30
0.0
  9
$PUCSORTHOREF
  2

  9
$PUCSORTHOVIEW
 70
0
  9
$PUCSORGTOP
 10
0.0
 20
0.0
 30
0.0
  9
$PUCSORGBOTTOM
 10
0.0
 20
0.0
 30
0.0
  9
$PUCSORGLEFT
 10
0.0
 20
0.0
 30
0.0
  9
$PUCSORGRIGHT
 10
0.0
 20
0.0
 30
0.0
  9
$PUCSORGFRONT
 10
0.0
 20
0.0
 30
0.0
  9
$PUCSORGBACK
 10
0.0
 20
0.0
 30
0.0
  9
$USERI1
 70
0
  9
$USERI2
 70
0
  9
$USERI3
 70
0
  9
$USERI4
 70
0
  9
$USERI5
 70
0
  9
$USERR1
 40
0.0
  9
$USERR2
 40
0.0
  9
$USERR3
 40
0.0
  9
$USERR4
 40
0.0
  9
$USERR5
 40
0.0
  9
$WORLDVIEW
 70
1
  9
$SHADEDGE
 70
3
  9
$SHADEDIF
 70
70
  9
$TILEMODE
 70
1
  9
$MAXACTVP
 70
64
  9
$PINSBASE
 10
0.0
 20
0.0
 30
0.0
  9
$PLIMCHECK
 70
0
  9
$PEXTMIN
 10
1e+20
 20
1e+20
 30
1e+20
  9
$PEXTMAX
 10
-1e+20
 20
-1e+20
 30
-1e+20
  9
$PLIMMIN
 10
-0.0
 20
-0.0
  9
$PLIMMAX
 10
17.0
 20
11.0
  9
$UNITMODE
 70
0
  9
$VISRETAIN
 70
1
  9
$PLINEGEN
 70
0
  9
$PSLTSCALE
 70
0
  9
$TREEDEPTH
 70
3020
  9
$CMLSTYLE
  2
Standard
  9
$CMLJUST
 70
0
  9
$CMLSCALE
 40
20.0
  9
$PROXYGRAPHICS
 70
1
  9
$MEASUREMENT
 70
0
  9
$CELWEIGHT
370
-1
  9
$ENDCAPS
280
0
  9
$JOINSTYLE
280
0
  9
$LWDISPLAY
290
0
  9
$INSUNITS
 70
2
  9
$HYPERLINKBASE
  1

  9
$STYLESHEET
  1

  9
$XEDIT
290
1
  9
$CEPSNTYPE
380
0
  9
$PSTYLEMODE
290
1
  9
$FINGERPRINTGUID
  2
{85196FE7-3A33-48D7-90A0-C3BFD2E41E44}
  9
$VERSIONGUID
  2
{31FDD539-FC19-49E5-AAA0-307EAFB7227D}
  9
$EXTNAMES
290
1
  9
$PSVPSCALE
 40
0.0
  9
$OLESTARTUP
290
0
  9
$SORTENTS
280
127
  9
$INDEXCTL
280
0
  9
$HIDETEXT
280
1
  9
$XCLIPFRAME
280
1
  9
$HALOGAP
280
0
  9
$OBSCOLOR
 70
257
  9
$OBSLTYPE
280
0
  9
$INTERSECTIONDISPLAY
280
0
  9
$INTERSECTIONCOLOR
 70
257
  9
$DIMASSOC
280
2
  9
$PROJECTNAME
  1

  9
$CAMERADISPLAY
290
0
  9
$LENSLENGTH
 40
50.0
  9
$CAMERAHEIGHT
 40
0.0
  9
$STEPSPERSEC
 40
24.0
  9
$STEPSIZE
 40
100.0
  9
$3DDWFPREC
 40
2.0
  9
$PSOLWIDTH
 40
0.005
  9
$PSOLHEIGHT
 40
0.08
  9
$LOFTANG1
 40
1.570796326795
  9
$LOFTANG2
 40
1.570796326795
  9
$LOFTMAG1
 40
0.0
  9
$LOFTMAG2
 40
0.0
  9
$LOFTPARAM
 70
7
  9
$LOFTNORMALS
280
1
  9
$LATITUDE
 40
37.795
  9
$LONGITUDE
 40
-122.394
  9
$NORTHDIRECTION
 40
0.0
  9
$TIMEZONE
 70
-8000
  9
$LIGHTGLYPHDISPLAY
280
1
  9
$TILEMODELIGHTSYNCH
280
1
  9
$CMATERIAL
347
20
  9
$SOLIDHIST
280
0
  9
$SHOWHIST
280
1
  9
$DWFFRAME
280
2
  9
$DGNFRAME
280
2
  9
$REALWORLDSCALE
290
1
  9
$INTERFERECOLOR
 62
256
  9
$CSHADOW
280
0
  9
$SHADOWPLANELOCATION
 40
0.0
  0
ENDSEC
  0
SECTION
  2
CLASSES
  0
CLASS
  1
ACDBDICTIONARYWDFLT
  2
AcDbDictionaryWithDefault
  3
ObjectDBX Classes
 90
0
 91
0
280
0
281
0
  0
CLASS
  1
SUN
  2
AcDbSun
  3
SCENEOE
 90
1153
 91
0
280
0
281
0
  0
CLASS
  1
VISUALSTYLE
  2
AcDbVisualStyle
  3
ObjectDBX Classes
 90
4095
 91
0
280
0
281
0
  0
CLASS
  1
MATERIAL
  2
AcDbMaterial
  3
ObjectDBX Classes
 90
1153
 91
0
280
0
281
0
  0
CLASS
  1
SCALE
  2
AcDbScale
  3
ObjectDBX Classes
 90
1153
 91
0
280
0
281
0
  0
CLASS
  1
TABLESTYLE
  2
AcDbTableStyle
  3
ObjectDBX Classes
 90
4095
 91
0
280
0
281
0
  0
CLASS
  1
MLEADERSTYLE
  2
AcDbMLeaderStyle
  3
ACDB_MLEADERSTYLE_CLASS
 90
4095
 91
0
280
0
281
0
  0
CLASS
  1
DICTIONARYVAR
  2
AcDbDictionaryVar
  3
ObjectDBX Classes
 90
0
 91
0
280
0
281
0
  0
CLASS
  1
CELLSTYLEMAP
  2
AcDbCellStyleMap
  3
ObjectDBX Classes
 90
1152
 91
0
280
0
281
0
  0
CLASS
  1
MENTALRAYRENDERSETTINGS
  2
AcDbMentalRayRenderSettings
  3
SCENEOE
 90
1024
 91
0
280
0
281
0
  0
CLASS
  1
ACDBDETAILVIEWSTYLE
  2
AcDbDetailViewStyle
  3
ObjectDBX Classes
 90
1025
 91
0
280
0
281
0
  0
CLASS
  1
ACDBSECTIONVIEWSTYLE
  2
AcDbSectionViewStyle
  3
ObjectDBX Classes
 90
1025
 91
0
280
0
281
0
  0
CLASS
  1
RASTERVARIABLES
  2
AcDbRasterVariables
  3
ISM
 90
0
 91
0
280
0
281
0
  0
CLASS
  1
ACDBPLACEHOLDER
  2
AcDbPlaceHolder
  3
ObjectDBX Classes
 90
0
 91
0
280
0
281
0
  0
CLASS
  1
LAYOUT
  2
AcDbLayout
  3
ObjectDBX Classes
 90
0
 91
0
280
0
281
0
  0
ENDSEC
  0
SECTION
  2
TABLES
  0
TABLE
  2
VPORT
  5
8
330
0
100
AcDbSymbolTable
 70
1
  0
VPORT
  5
23
330
8
100
AcDbSymbolTableRecord
100
AcDbViewportTableRecord
  2
*Active
 70
0
 10
0.0
 20
0.0
 11
1.0
 21
1.0
 12
0.0
 22
0.0
 13
0.0
 23
0.0
 14
0.5
 24
0.5
 15
0.5
 25
0.5
 16
0.0
 26
0.0
 36
1.0
 17
0.0
 27
0.0
 37
0.0
 40
1000.0
 41
1.34
 42
50.0
 43
0.0
 44
0.0
 50
0.0
 51
0.0
 71
0
 72
1000
 73
1
 74
3
 75
0
 76
0
 77
0
 78
0
281
0
 65
0
146
0.0
  0
ENDTAB
  0
TABLE
  2
LTYPE
  5
2
330
0
100
AcDbSymbolTable
 70
10
  0
LTYPE
  5
24
330
2
100
AcDbSymbolTableRecord
100
AcDbLinetypeTableRecord
  2
ByBlock
 70
0
  3

 72
65
 73
0
 40
0.0
  0
LTYPE
  5
25
330
2
100
AcDbSymbolTableRecord
100
AcDbLinetypeTableRecord
  2
ByLayer
 70
0
  3

 72
65
 73
0
 40
0.0
  0
LTYPE
  5
26
330
2
100
AcDbSymbolTableRecord
100
AcDbLinetypeTableRecord
  2
Continuous
 70
0
  3

 72
65
 73
0
 40
0.0
  0
LTYPE
  5
30
330
2
100
AcDbSymbolTableRecord
100
AcDbLinetypeTableRecord
  2
DASHED2
 70
0
  3
Dashed (.5x) __ __ __
 72
65
 73
2
 40
0.375
 49
0.25
 74
0
 49
-0.125
 74
0
  0
LTYPE
  5
31
330
2
100
AcDbSymbolTableRecord
100
AcDbLinetypeTableRecord
  2
CENTER2
 70
0
  3
Center (.5x) ___ _ ___
 72
65
 73
4
 40
1.125
 49
0.75
 74
0
 49
-0.125
 74
0
 49
0.125
 74
0
 49
-0.125
 74
0
  0
LTYPE
  5
32
330
2
100
AcDbSymbolTableRecord
100
AcDbLinetypeTableRecord
  2
FENCE
 70
0
  3
Fence ----X----X----
 72
65
 73
3
 40
0.53
 49
0.4
 74
0
 49
-0.06
 74
2
 75
0
340
29
 46
0.06
 50
0.0
 44
-0.04
 45
-0.03
  9
X
 49
-0.07
 74
0
  0
LTYPE
  5
33
330
2
100
AcDbSymbolTableRecord
100
AcDbLinetypeTableRecord
  2
STORM
 70
0
  3
Storm ----SD----SD----
 72
65
 73
3
 40
0.5800000000000001
 49
0.4
 74
0
 49
-0.06
 74
2
 75
0
340
29
 46
0.06
 50
0.0
 44
-0.04
 45
-0.03
  9
SD
 49
-0.12
 74
0
  0
LTYPE
  5
34
330
2
100
AcDbSymbolTableRecord
100
AcDbLinetypeTableRecord
  2
SANITARY
 70
0
  3
Sanitary ----SS----SS----
 72
65
 73
3
 40
0.5800000000000001
 49
0.4
 74
0
 49
-0.06
 74
2
 75
0
340
29
 46
0.06
 50
0.0
 44
-0.04
 45
-0.03
  9
SS
 49
-0.12
 74
0
  0
LTYPE
  5
35
330
2
100
AcDbSymbolTableRecord
100
AcDbLinetypeTableRecord
  2
WATER
 70
0
  3
Water ----W----W----
 72
65
 73
3
 40
0.53
 49
0.4
 74
0
 49
-0.06
 74
2
 75
0
340
29
 46
0.06
 50
0.0
 44
-0.04
 45
-0.03
  9
W
 49
-0.07
 74
0
  0
LTYPE
  5
36
330
2
100
AcDbSymbolTableRecord
100
AcDbLinetypeTableRecord
  2
OVERHEAD
 70
0
  3
Overhead ----OHP----OHP----
 72
65
 73
3
 40
0.63
 49
0.4
 74
0
 49
-0.06
 74
2
 75
0
340
29
 46
0.06
 50
0.0
 44
-0.04
 45
-0.03
  9
OHP
 49
-0.17
 74
0
  0
ENDTAB
  0
TABLE
  2
LAYER
  5
1
330
0
100
AcDbSymbolTable
 70
28
  0
LAYER
  5
27
330
1
100
AcDbSymbolTableRecord
100
AcDbLayerTableRecord
  2
0
 70
0
 62
7
  6
Continuous
370
-3
390
13
347
21
  0
LAYER
  5
28
330
1
100
AcDbSymbolTableRecord
100
AcDbLayerTableRecord
  2
Defpoints
 70
0
 62
7
  6
Continuous
290
0
370
-3
390
13
347
21
  0
LAYER
  5
37
330
1
100
AcDbSymbolTableRecord
100
AcDbLayerTableRecord
  2
V-PROP-LINE
 70
0
 62
6
  6
Continuous
370
50
390
13
347
21
  0
LAYER
  5
38
330
1
100
AcDbSymbolTableRecord
100
AcDbLayerTableRecord
  2
V-PROP-RWAY
 70
0
 62
6
  6
Continuous
370
35
390
13
347
21
  0
LAYER
  5
39
330
1
100
AcDbSymbolTableRecord
100
AcDbLayerTableRecord
  2
V-PROP-ADJN
 70
0
 62
8
  6
DASHED2
370
18
390
13
347
21
  0
LAYER
  5
3A
330
1
100
AcDbSymbolTableRecord
100
AcDbLayerTableRecord
  2
V-PROP-CNTR
 70
0
 62
2
  6
CENTER2
370
18
390
13
347
21
  0
LAYER
  5
3B
330
1
100
AcDbSymbolTableRecord
100
AcDbLayerTableRecord
  2
V-PROP-TEXT
 70
0
 62
7
  6
Continuous
370
25
390
13
347
21
  0
LAYER
  5
3C
330
1
100
AcDbSymbolTableRecord
100
AcDbLayerTableRecord
  2
V-CTRL-MONU
 70
0
 62
1
  6
Continuous
370
25
390
13
347
21
  0
LAYER
  5
3D
330
1
100
AcDbSymbolTableRecord
100
AcDbLayerTableRecord
  2
V-NODE
 70
0
 62
140
  6
Continuous
370
13
390
13
347
21
  0
LAYER
  5
3E
330
1
100
AcDbSymbolTableRecord
100
AcDbLayerTableRecord
  2
V-ROAD-CURB
 70
0
 62
4
  6
Continuous
370
35
390
13
347
21
  0
LAYER
  5
3F
330
1
100
AcDbSymbolTableRecord
100
AcDbLayerTableRecord
  2
V-ROAD-SWLK
 70
0
 62
51
  6
Continuous
370
25
390
13
347
21
  0
LAYER
  5
40
330
1
100
AcDbSymbolTableRecord
100
AcDbLayerTableRecord
  2
V-SITE-CONC
 70
0
 62
51
  6
Continuous
370
25
390
13
347
21
  0
LAYER
  5
41
330
1
100
AcDbSymbolTableRecord
100
AcDbLayerTableRecord
  2
V-SITE-FENC
 70
0
 62
32
  6
FENCE
370
25
390
13
347
21
  0
LAYER
  5
42
330
1
100
AcDbSymbolTableRecord
100
AcDbLayerTableRecord
  2
V-SITE-VEGE
 70
0
 62
3
  6
Continuous
370
25
390
13
347
21
  0
LAYER
  5
43
330
1
100
AcDbSymbolTableRecord
100
AcDbLayerTableRecord
  2
V-BLDG-OTLN
 70
0
 62
30
  6
Continuous
370
50
390
13
347
21
  0
LAYER
  5
44
330
1
100
AcDbSymbolTableRecord
100
AcDbLayerTableRecord
  2
V-STRM-STRC
 70
0
 62
150
  6
Continuous
370
35
390
13
347
21
  0
LAYER
  5
45
330
1
100
AcDbSymbolTableRecord
100
AcDbLayerTableRecord
  2
V-STRM-PIPE
 70
0
 62
150
  6
STORM
370
25
390
13
347
21
  0
LAYER
  5
46
330
1
100
AcDbSymbolTableRecord
100
AcDbLayerTableRecord
  2
V-SSWR-STRC
 70
0
 62
34
  6
Continuous
370
35
390
13
347
21
  0
LAYER
  5
47
330
1
100
AcDbSymbolTableRecord
100
AcDbLayerTableRecord
  2
V-SSWR-PIPE
 70
0
 62
34
  6
SANITARY
370
25
390
13
347
21
  0
LAYER
  5
48
330
1
100
AcDbSymbolTableRecord
100
AcDbLayerTableRecord
  2
V-WATR-STRC
 70
0
 62
5
  6
Continuous
370
35
390
13
347
21
  0
LAYER
  5
49
330
1
100
AcDbSymbolTableRecord
100
AcDbLayerTableRecord
  2
V-WATR-PIPE
 70
0
 62
5
  6
WATER
370
25
390
13
347
21
  0
LAYER
  5
4A
330
1
100
AcDbSymbolTableRecord
100
AcDbLayerTableRecord
  2
V-POWR-POLE
 70
0
 62
212
  6
Continuous
370
35
390
13
347
21
  0
LAYER
  5
4B
330
1
100
AcDbSymbolTableRecord
100
AcDbLayerTableRecord
  2
V-POWR-OVHD
 70
0
 62
212
  6
OVERHEAD
370
25
390
13
347
21
  0
LAYER
  5
4C
330
1
100
AcDbSymbolTableRecord
100
AcDbLayerTableRecord
  2
V-ANNO-TEXT
 70
0
 62
7
  6
Continuous
370
25
390
13
347
21
  0
LAYER
  5
4D
330
1
100
AcDbSymbolTableRecord
100
AcDbLayerTableRecord
  2
V-ANNO-DIMS
 70
0
 62
7
  6
Continuous
370
18
390
13
347
21
  0
LAYER
  5
4E
330
1
100
AcDbSymbolTableRecord
100
AcDbLayerTableRecord
  2
V-ANNO-TTLB
 70
0
 62
7
  6
Continuous
370
35
390
13
347
21
  0
LAYER
  5
4F
330
1
100
AcDbSymbolTableRecord
100
AcDbLayerTableRecord
  2
G-ANNO-VPRT
 70
0
 62
8
  6
Continuous
290
0
370
13
390
13
347
21
  0
LAYER
  5
50
330
1
100
AcDbSymbolTableRecord
100
AcDbLayerTableRecord
  2
TRAIN-NOTES
 70
1
 62
10
  6
Continuous
290
0
370
25
390
13
347
21
  0
ENDTAB
  0
TABLE
  2
STYLE
  5
5
330
0
100
AcDbSymbolTable
 70
2
  0
STYLE
  5
29
330
5
100
AcDbSymbolTableRecord
100
AcDbTextStyleTableRecord
  2
Standard
 70
0
 40
0.0
 41
1.0
 50
0.0
 71
0
 42
2.5
  3
romans.shx
  4

  0
STYLE
  5
2F
330
5
100
AcDbSymbolTableRecord
100
AcDbTextStyleTableRecord
  2
SURVEY
 70
0
 40
0.0
 41
1.0
 50
0.0
 71
0
 42
2.5
  3
romans.shx
  4

  0
ENDTAB
  0
TABLE
  2
VIEW
  5
7
330
0
100
AcDbSymbolTable
 70
0
  0
ENDTAB
  0
TABLE
  2
UCS
  5
6
330
0
100
AcDbSymbolTable
 70
0
  0
ENDTAB
  0
TABLE
  2
APPID
  5
3
330
0
100
AcDbSymbolTable
 70
3
  0
APPID
  5
2A
330
3
100
AcDbSymbolTableRecord
100
AcDbRegAppTableRecord
  2
ACAD
 70
0
  0
APPID
  5
1E6
330
3
100
AcDbSymbolTableRecord
100
AcDbRegAppTableRecord
  2
HATCHBACKGROUNDCOLOR
 70
0
  0
APPID
  5
1E7
330
3
100
AcDbSymbolTableRecord
100
AcDbRegAppTableRecord
  2
EZDXF
 70
0
  0
ENDTAB
  0
TABLE
  2
DIMSTYLE
  5
4
330
0
100
AcDbSymbolTable
 70
2
100
AcDbDimStyleTable
  0
DIMSTYLE
105
2B
330
4
100
AcDbSymbolTableRecord
100
AcDbDimStyleTableRecord
  2
Standard
 70
0
 40
1.0
 41
2.5
 42
0.625
 43
3.75
 44
1.25
 45
0.0
 46
0.0
 47
0.0
 48
0.0
 49
2.5
140
2.5
141
2.5
142
0.0
143
0.03937007874
144
1.0
145
0.0
146
1.0
147
0.625
148
0.0
 69
0
 70
0
 71
0
 72
0
 73
0
 74
0
 75
0
 76
0
 77
1
 78
8
 79
3
170
0
171
3
172
1
173
0
174
0
175
0
176
0
177
0
178
0
179
2
271
2
272
2
273
2
274
3
275
0
276
0
277
2
278
44
279
0
280
0
281
0
282
0
283
0
284
8
285
0
286
0
288
0
289
3
290
0
371
-2
372
-2
  0
DIMSTYLE
105
52
330
4
100
AcDbSymbolTableRecord
100
AcDbDimStyleTableRecord
  2
SRV-30
 70
0
 40
30.0
 41
0.08
 42
0.05
 43
3.75
 44
0.06
 45
0.0
 46
0.0
 47
0.0
 48
0.0
 49
2.5
140
0.08
141
2.5
142
0.0
143
0.03937007874
144
1.0
145
0.0
146
1.0
147
0.03
148
0.0
 69
0
 70
0
 71
0
 72
0
 73
0
 74
0
 75
0
 76
0
 77
1
 78
0
 79
3
170
0
171
3
172
1
173
0
174
0
175
0
176
256
177
256
178
256
179
2
271
2
272
2
273
2
274
3
275
0
276
0
277
2
278
44
279
0
280
0
281
0
282
0
283
0
284
8
285
0
286
0
288
0
289
3
290
0
340
2F
371
-2
372
-2
  0
ENDTAB
  0
TABLE
  2
BLOCK_RECORD
  5
9
330
0
100
AcDbSymbolTable
 70
15
  0
BLOCK_RECORD
  5
17
330
9
100
AcDbSymbolTableRecord
100
AcDbBlockTableRecord
  2
*Model_Space
340
1A
 70
0
280
1
281
0
  0
BLOCK_RECORD
  5
54
330
9
100
AcDbSymbolTableRecord
100
AcDbBlockTableRecord
  2
SRV-PT
340
0
 70
0
280
1
281
0
  0
BLOCK_RECORD
  5
5D
330
9
100
AcDbSymbolTableRecord
100
AcDbBlockTableRecord
  2
FIR
340
0
 70
0
280
1
281
0
  0
BLOCK_RECORD
  5
62
330
9
100
AcDbSymbolTableRecord
100
AcDbBlockTableRecord
  2
MON-CASE
340
0
 70
0
280
1
281
0
  0
BLOCK_RECORD
  5
68
330
9
100
AcDbSymbolTableRecord
100
AcDbBlockTableRecord
  2
TREE-DECID
340
0
 70
0
280
1
281
0
  0
BLOCK_RECORD
  5
6D
330
9
100
AcDbSymbolTableRecord
100
AcDbBlockTableRecord
  2
CB
340
0
 70
0
280
1
281
0
  0
BLOCK_RECORD
  5
74
330
9
100
AcDbSymbolTableRecord
100
AcDbBlockTableRecord
  2
SSMH
340
0
 70
0
280
1
281
0
  0
BLOCK_RECORD
  5
79
330
9
100
AcDbSymbolTableRecord
100
AcDbBlockTableRecord
  2
WM
340
0
 70
0
280
1
281
0
  0
BLOCK_RECORD
  5
7E
330
9
100
AcDbSymbolTableRecord
100
AcDbBlockTableRecord
  2
FH
340
0
 70
0
280
1
281
0
  0
BLOCK_RECORD
  5
85
330
9
100
AcDbSymbolTableRecord
100
AcDbBlockTableRecord
  2
PP
340
0
 70
0
280
1
281
0
  0
BLOCK_RECORD
  5
8F
330
9
100
AcDbSymbolTableRecord
100
AcDbBlockTableRecord
  2
NORTH
340
0
 70
0
280
1
281
0
  0
BLOCK_RECORD
  5
F2
330
9
100
AcDbSymbolTableRecord
100
AcDbBlockTableRecord
  2
*D1
340
0
 70
0
280
1
281
0
  0
BLOCK_RECORD
  5
F7
330
9
100
AcDbSymbolTableRecord
100
AcDbBlockTableRecord
  2
_CLOSEDFILLED
340
0
 70
0
280
1
281
0
  0
BLOCK_RECORD
  5
105
330
9
100
AcDbSymbolTableRecord
100
AcDbBlockTableRecord
  2
*D2
340
0
 70
0
280
1
281
0
  0
BLOCK_RECORD
  5
195
330
9
100
AcDbSymbolTableRecord
100
AcDbBlockTableRecord
  2
*Paper_Space
340
198
 70
0
280
1
281
0
  0
ENDTAB
  0
ENDSEC
  0
SECTION
  2
BLOCKS
  0
BLOCK
  5
18
330
17
100
AcDbEntity
  8
0
100
AcDbBlockBegin
  2
*Model_Space
 70
0
 10
0.0
 20
0.0
 30
0.0
  3
*Model_Space
  1

  0
ENDBLK
  5
19
330
17
100
AcDbEntity
  8
0
100
AcDbBlockEnd
  0
BLOCK
  5
55
330
54
100
AcDbEntity
  8
0
100
AcDbBlockBegin
  2
SRV-PT
 70
2
 10
0.0
 20
0.0
 30
0.0
  3
SRV-PT
  1

  0
POINT
  5
57
330
54
100
AcDbEntity
  8
0
100
AcDbPoint
 10
0.0
 20
0.0
 30
0.0
  0
LINE
  5
58
330
54
100
AcDbEntity
  8
0
100
AcDbLine
 10
-0.5
 20
-0.5
 30
0.0
 11
0.5
 21
0.5
 31
0.0
  0
LINE
  5
59
330
54
100
AcDbEntity
  8
0
100
AcDbLine
 10
-0.5
 20
0.5
 30
0.0
 11
0.5
 21
-0.5
 31
0.0
  0
ATTDEF
  5
5A
330
54
100
AcDbEntity
  8
0
100
AcDbText
 10
1.1
 20
1.1
 30
0.0
 40
1.7999999999999998
  1

  7
SURVEY
100
AcDbAttributeDefinition
  3

  2
PNT
 70
0
 71
1
 72
0
  0
ATTDEF
  5
5B
330
54
100
AcDbEntity
  8
0
100
AcDbText
 10
1.1
 20
-0.9
 30
0.0
 40
1.7999999999999998
  1

  7
SURVEY
100
AcDbAttributeDefinition
  3

  2
ELEV
 70
0
 71
1
 72
0
  0
ATTDEF
  5
5C
330
54
100
AcDbEntity
  8
0
100
AcDbText
 10
1.1
 20
-3.3
 30
0.0
 40
1.7999999999999998
  1

  7
SURVEY
100
AcDbAttributeDefinition
  3

  2
DESC
 70
0
 71
1
 72
0
  0
ENDBLK
  5
56
330
54
100
AcDbEntity
  8
0
100
AcDbBlockEnd
  0
BLOCK
  5
5E
330
5D
100
AcDbEntity
  8
0
100
AcDbBlockBegin
  2
FIR
 70
0
 10
0.0
 20
0.0
 30
0.0
  3
FIR
  1

  0
CIRCLE
  5
60
330
5D
100
AcDbEntity
  8
0
100
AcDbCircle
 10
0.0
 20
0.0
 30
0.0
 40
0.9
  0
CIRCLE
  5
61
330
5D
100
AcDbEntity
  8
0
100
AcDbCircle
 10
0.0
 20
0.0
 30
0.0
 40
0.35
  0
ENDBLK
  5
5F
330
5D
100
AcDbEntity
  8
0
100
AcDbBlockEnd
  0
BLOCK
  5
63
330
62
100
AcDbEntity
  8
0
100
AcDbBlockBegin
  2
MON-CASE
 70
0
 10
0.0
 20
0.0
 30
0.0
  3
MON-CASE
  1

  0
CIRCLE
  5
65
330
62
100
AcDbEntity
  8
0
100
AcDbCircle
 10
0.0
 20
0.0
 30
0.0
 40
1.6
  0
LWPOLYLINE
  5
66
330
62
100
AcDbEntity
  8
0
100
AcDbPolyline
 90
4
 70
1
 10
-0.8
 20
-0.8
 10
0.8
 20
-0.8
 10
0.8
 20
0.8
 10
-0.8
 20
0.8
  0
POINT
  5
67
330
62
100
AcDbEntity
  8
0
100
AcDbPoint
 10
0.0
 20
0.0
 30
0.0
  0
ENDBLK
  5
64
330
62
100
AcDbEntity
  8
0
100
AcDbBlockEnd
  0
BLOCK
  5
69
330
68
100
AcDbEntity
  8
0
100
AcDbBlockBegin
  2
TREE-DECID
 70
0
 10
0.0
 20
0.0
 30
0.0
  3
TREE-DECID
  1

  0
LWPOLYLINE
  5
6B
330
68
100
AcDbEntity
  8
0
100
AcDbPolyline
 90
10
 70
1
 10
4.0
 20
0.0
 42
-0.35
 10
3.23606797749979
 20
2.3511410091698925
 42
-0.35
 10
1.2360679774997898
 20
3.804226065180614
 42
-0.35
 10
-1.2360679774997894
 20
3.8042260651806146
 42
-0.35
 10
-3.2360679774997894
 20
2.351141009169893
 42
-0.35
 10
-4.0
 20
4.898587196589413e-16
 42
-0.35
 10
-3.2360679774997902
 20
-2.351141009169892
 42
-0.35
 10
-1.2360679774997902
 20
-3.804226065180614
 42
-0.35
 10
1.236067977499789
 20
-3.8042260651806146
 42
-0.35
 10
3.2360679774997894
 20
-2.3511410091698934
 42
-0.35
  0
CIRCLE
  5
6C
330
68
100
AcDbEntity
  8
0
100
AcDbCircle
 10
0.0
 20
0.0
 30
0.0
 40
0.6
  0
ENDBLK
  5
6A
330
68
100
AcDbEntity
  8
0
100
AcDbBlockEnd
  0
BLOCK
  5
6E
330
6D
100
AcDbEntity
  8
0
100
AcDbBlockBegin
  2
CB
 70
0
 10
0.0
 20
0.0
 30
0.0
  3
CB
  1

  0
LWPOLYLINE
  5
70
330
6D
100
AcDbEntity
  8
0
100
AcDbPolyline
 90
4
 70
1
 10
-1.5
 20
-1.0
 10
1.5
 20
-1.0
 10
1.5
 20
1.0
 10
-1.5
 20
1.0
  0
LINE
  5
71
330
6D
100
AcDbEntity
  8
0
100
AcDbLine
 10
-0.75
 20
-0.7
 30
0.0
 11
-0.75
 21
0.7
 31
0.0
  0
LINE
  5
72
330
6D
100
AcDbEntity
  8
0
100
AcDbLine
 10
0.0
 20
-0.7
 30
0.0
 11
0.0
 21
0.7
 31
0.0
  0
LINE
  5
73
330
6D
100
AcDbEntity
  8
0
100
AcDbLine
 10
0.75
 20
-0.7
 30
0.0
 11
0.75
 21
0.7
 31
0.0
  0
ENDBLK
  5
6F
330
6D
100
AcDbEntity
  8
0
100
AcDbBlockEnd
  0
BLOCK
  5
75
330
74
100
AcDbEntity
  8
0
100
AcDbBlockBegin
  2
SSMH
 70
0
 10
0.0
 20
0.0
 30
0.0
  3
SSMH
  1

  0
CIRCLE
  5
77
330
74
100
AcDbEntity
  8
0
100
AcDbCircle
 10
0.0
 20
0.0
 30
0.0
 40
2.0
  0
TEXT
  5
78
330
74
100
AcDbEntity
  8
0
100
AcDbText
 10
0.0
 20
0.0
 30
0.0
 40
2.0
  1
S
  7
SURVEY
 72
1
 11
0.0
 21
0.0
 31
0.0
100
AcDbText
 73
2
  0
ENDBLK
  5
76
330
74
100
AcDbEntity
  8
0
100
AcDbBlockEnd
  0
BLOCK
  5
7A
330
79
100
AcDbEntity
  8
0
100
AcDbBlockBegin
  2
WM
 70
0
 10
0.0
 20
0.0
 30
0.0
  3
WM
  1

  0
LWPOLYLINE
  5
7C
330
79
100
AcDbEntity
  8
0
100
AcDbPolyline
 90
4
 70
1
 10
-1.2
 20
-0.8
 10
1.2
 20
-0.8
 10
1.2
 20
0.8
 10
-1.2
 20
0.8
  0
TEXT
  5
7D
330
79
100
AcDbEntity
  8
0
100
AcDbText
 10
0.0
 20
0.0
 30
0.0
 40
1.1
  1
W
  7
SURVEY
 72
1
 11
0.0
 21
0.0
 31
0.0
100
AcDbText
 73
2
  0
ENDBLK
  5
7B
330
79
100
AcDbEntity
  8
0
100
AcDbBlockEnd
  0
BLOCK
  5
7F
330
7E
100
AcDbEntity
  8
0
100
AcDbBlockBegin
  2
FH
 70
0
 10
0.0
 20
0.0
 30
0.0
  3
FH
  1

  0
CIRCLE
  5
81
330
7E
100
AcDbEntity
  8
0
100
AcDbCircle
 10
0.0
 20
0.0
 30
0.0
 40
1.0
  0
LINE
  5
82
330
7E
100
AcDbEntity
  8
0
100
AcDbLine
 10
-2.0
 20
0.0
 30
0.0
 11
-1.0
 21
0.0
 31
0.0
  0
LINE
  5
83
330
7E
100
AcDbEntity
  8
0
100
AcDbLine
 10
1.0
 20
0.0
 30
0.0
 11
2.0
 21
0.0
 31
0.0
  0
LINE
  5
84
330
7E
100
AcDbEntity
  8
0
100
AcDbLine
 10
0.0
 20
1.0
 30
0.0
 11
0.0
 21
2.0
 31
0.0
  0
ENDBLK
  5
80
330
7E
100
AcDbEntity
  8
0
100
AcDbBlockEnd
  0
BLOCK
  5
86
330
85
100
AcDbEntity
  8
0
100
AcDbBlockBegin
  2
PP
 70
0
 10
0.0
 20
0.0
 30
0.0
  3
PP
  1

  0
CIRCLE
  5
88
330
85
100
AcDbEntity
  8
0
100
AcDbCircle
 10
0.0
 20
0.0
 30
0.0
 40
1.0
  0
LINE
  5
89
330
85
100
AcDbEntity
  8
0
100
AcDbLine
 10
-1.6
 20
0.0
 30
0.0
 11
1.6
 21
0.0
 31
0.0
  0
LINE
  5
8A
330
85
100
AcDbEntity
  8
0
100
AcDbLine
 10
0.0
 20
-1.6
 30
0.0
 11
0.0
 21
1.6
 31
0.0
  0
ENDBLK
  5
87
330
85
100
AcDbEntity
  8
0
100
AcDbBlockEnd
  0
BLOCK
  5
90
330
8F
100
AcDbEntity
  8
0
100
AcDbBlockBegin
  2
NORTH
 70
0
 10
0.0
 20
0.0
 30
0.0
  3
NORTH
  1

  0
CIRCLE
  5
92
330
8F
100
AcDbEntity
  8
0
100
AcDbCircle
 10
0.0
 20
0.0
 30
0.0
 40
0.35
  0
SOLID
  5
93
330
8F
100
AcDbEntity
  8
0
100
AcDbTrace
 10
0.0
 20
0.55
 30
0.0
 11
-0.14
 21
-0.2
 31
0.0
 12
0.0
 22
-0.05
 32
0.0
 13
0.14
 23
-0.2
 33
0.0
  0
LINE
  5
94
330
8F
100
AcDbEntity
  8
0
100
AcDbLine
 10
0.0
 20
-0.35
 30
0.0
 11
0.0
 21
0.55
 31
0.0
  0
TEXT
  5
95
330
8F
100
AcDbEntity
  8
0
100
AcDbText
 10
0.0
 20
0.72
 30
0.0
 40
0.16
  1
N
  7
SURVEY
 72
1
 11
0.0
 21
0.72
 31
0.0
100
AcDbText
 73
1
  0
ENDBLK
  5
91
330
8F
100
AcDbEntity
  8
0
100
AcDbBlockEnd
  0
BLOCK
  5
F3
330
F2
100
AcDbEntity
  8
0
100
AcDbBlockBegin
  2
*D1
 70
1
 10
0.0
 20
0.0
 30
0.0
  3
*D1
  1

  0
LINE
  5
F5
330
F2
100
AcDbEntity
  8
0
100
AcDbLine
 10
5020.222691392845
 20
8020.28035386352
 30
0.0
 11
5015.923098977676
 21
8020.221150287424
 31
0.0
  0
LINE
  5
F6
330
F2
100
AcDbEntity
  8
0
100
AcDbLine
 10
5020.498056863015
 20
8000.282249606907
 30
0.0
 11
5016.198464447846
 21
8000.223046030772
 31
0.0
  0
INSERT
  5
FB
330
F2
100
AcDbEntity
  8
V-ANNO-DIMS
100
AcDbBlockReference
  2
_CLOSEDFILLED
 10
5017.72292836077
 20
8020.245933179744
 30
0.0
 41
2.4
 42
2.4
 50
90.78888888888902
  0
INSERT
  5
FD
330
F2
100
AcDbEntity
  8
V-ANNO-DIMS
100
AcDbBlockReference
  2
_CLOSEDFILLED
 10
5017.9982938309395
 20
8000.247828923108
 30
0.0
 41
2.4
 42
2.4
 50
-89.21111111111098
  0
LINE
  5
FF
330
F2
100
AcDbEntity
  8
0
100
AcDbLine
 10
5017.755972217191
 20
8017.846160668952
 30
0.0
 11
5017.965249974519
 21
8002.6476014339
 31
0.0
  0
MTEXT
  5
100
330
F2
100
AcDbEntity
  8
V-ANNO-DIMS
100
AcDbMText
 10
5019.960412042798
 20
8010.275794425794
 30
0.0
 40
2.4
 71
5
  1
20,00'
  7
SURVEY
 50
-89.21111111111098
  0
POINT
  5
101
330
F2
100
AcDbEntity
  8
Defpoints
100
AcDbPoint
 10
5017.72292836077
 20
8020.245933179744
 30
0.0
  0
POINT
  5
102
330
F2
100
AcDbEntity
  8
Defpoints
100
AcDbPoint
 10
5021.722549212091
 20
8020.301006273786
 30
0.0
  0
POINT
  5
103
330
F2
100
AcDbEntity
  8
Defpoints
100
AcDbPoint
 10
5021.99791468226
 20
8000.302902017186
 30
0.0
  0
ENDBLK
  5
F4
330
F2
100
AcDbEntity
  8
0
100
AcDbBlockEnd
  0
BLOCK
  5
F8
330
F7
100
AcDbEntity
  8
0
100
AcDbBlockBegin
  2
_CLOSEDFILLED
 70
0
 10
0.0
 20
0.0
 30
0.0
  3
_CLOSEDFILLED
  1

  0
SOLID
  5
FA
330
F7
100
AcDbEntity
  8
0
  6
BYBLOCK
 62
0
100
AcDbTrace
 10
-1.0
 20
0.16439898372402537
 30
0.0
 11
0.0
 21
0.0
 31
0.0
 12
-1.0
 22
-0.16439898372402537
 32
0.0
 13
-1.0
 23
-0.16439898372402537
 33
0.0
  0
ENDBLK
  5
F9
330
F7
100
AcDbEntity
  8
0
100
AcDbBlockEnd
  0
BLOCK
  5
106
330
105
100
AcDbEntity
  8
0
100
AcDbBlockBegin
  2
*D2
 70
1
 10
0.0
 20
0.0
 30
0.0
  3
*D2
  1

  0
LINE
  5
108
330
105
100
AcDbEntity
  8
0
100
AcDbLine
 10
5080.12751038484
 20
8027.605834157425
 30
0.0
 11
5080.054538535246
 21
8032.905331785424
 31
0.0
  0
LINE
  5
109
330
105
100
AcDbEntity
  8
0
100
AcDbLine
 10
5099.625662035024
 20
8027.874315490841
 30
0.0
 11
5099.552690185429
 21
8033.1738131188395
 31
0.0
  0
INSERT
  5
10A
330
105
100
AcDbEntity
  8
V-ANNO-DIMS
100
AcDbBlockReference
  2
_CLOSEDFILLED
 10
5080.079321427561
 20
8031.10550240233
 30
0.0
 41
2.4
 42
2.4
 50
180.78888888889028
  0
INSERT
  5
10C
330
105
100
AcDbEntity
  8
V-ANNO-DIMS
100
AcDbBlockReference
  2
_CLOSEDFILLED
 10
5099.577473077745
 20
8031.373983735745
 30
0.0
 41
2.4
 42
2.4
 50
0.7888888888902902
  0
LINE
  5
10E
330
105
100
AcDbEntity
  8
0
100
AcDbLine
 10
5082.479093938353
 20
8031.1385462587505
 30
0.0
 11
5097.177700566953
 21
8031.340939879325
 31
0.0
  0
MTEXT
  5
10F
330
105
100
AcDbEntity
  8
V-ANNO-DIMS
100
AcDbMText
 10
5089.799483878285
 20
8033.339544015981
 30
0.0
 40
2.4
 71
5
  1
19,50'
  7
SURVEY
 50
0.7888888888902902
  0
POINT
  5
110
330
105
100
AcDbEntity
  8
Defpoints
100
AcDbPoint
 10
5080.079321427561
 20
8031.10550240233
 30
0.0
  0
POINT
  5
111
330
105
100
AcDbEntity
  8
Defpoints
100
AcDbPoint
 10
5080.1481627951025
 20
8026.10597633818
 30
0.0
  0
POINT
  5
112
330
105
100
AcDbEntity
  8
Defpoints
100
AcDbPoint
 10
5099.646314445287
 20
8026.374457671595
 30
0.0
  0
ENDBLK
  5
107
330
105
100
AcDbEntity
  8
0
100
AcDbBlockEnd
  0
BLOCK
  5
196
330
195
100
AcDbEntity
  8
0
100
AcDbBlockBegin
  2
*Paper_Space
 70
0
 10
0.0
 20
0.0
 30
0.0
  3
*Paper_Space
  1

  0
ENDBLK
  5
197
330
195
100
AcDbEntity
  8
0
100
AcDbBlockEnd
  0
ENDSEC
  0
SECTION
  2
ENTITIES
  0
LWPOLYLINE
  5
96
330
17
100
AcDbEntity
  8
V-PROP-LINE
100
AcDbPolyline
 90
4
 70
1
 10
5000.0
 20
8000.0
 10
5099.990521282999
 20
8001.376827350846
 10
5098.062962991815
 20
8141.363557147045
 10
4998.072441708816
 20
8139.986729796199
  0
LINE
  5
97
330
17
100
AcDbEntity
  8
V-PROP-RWAY
100
AcDbLine
 10
4930.0066351019
 20
7999.036220854408
 30
0.0
 11
5000.0
 21
8000.0
 31
0.0
  0
LINE
  5
98
330
17
100
AcDbEntity
  8
V-PROP-RWAY
100
AcDbLine
 10
5099.990521282999
 20
8001.376827350846
 30
0.0
 11
5174.983412245249
 21
8002.40944786398
 31
0.0
  0
LINE
  5
99
330
17
100
AcDbEntity
  8
V-PROP-RWAY
100
AcDbLine
 10
4930.832731512408
 20
7939.041908084609
 30
0.0
 11
5175.809508655757
 21
7942.41513509418
 31
0.0
  0
LINE
  5
9A
330
17
100
AcDbEntity
  8
V-PROP-CNTR
100
AcDbLine
 10
4930.419683307154
 20
7969.039064469509
 30
0.0
 11
5175.396460450503
 21
7972.4122914790805
 31
0.0
  0
LINE
  5
9B
330
17
100
AcDbEntity
  8
V-PROP-ADJN
100
AcDbLine
 10
4928.079076810716
 20
8139.0229506506075
 30
0.0
 11
4998.072441708816
 21
8139.986729796199
 31
0.0
  0
LINE
  5
9C
330
17
100
AcDbEntity
  8
V-PROP-ADJN
100
AcDbLine
 10
5098.062962991815
 20
8141.363557147045
 30
0.0
 11
5173.055853954065
 21
8142.396177660179
 31
0.0
  0
LINE
  5
9D
330
17
100
AcDbEntity
  8
V-PROP-ADJN
100
AcDbLine
 10
4998.072441708816
 20
8139.986729796199
 30
0.0
 11
4997.934758973732
 21
8149.985781924499
 31
0.0
  0
LINE
  5
9E
330
17
100
AcDbEntity
  8
V-PROP-ADJN
100
AcDbLine
 10
5098.062962991815
 20
8141.363557147045
 30
0.0
 11
5097.925280256731
 21
8151.362609275345
 31
0.0
  0
TEXT
  5
9F
330
17
100
AcDbEntity
  8
V-PROP-TEXT
100
AcDbText
 10
5071.97665339555
 20
8002.191201948004
 30
0.0
 40
2.4
  1
N89°12'40"E 100.00'
 50
0.7888888888888889
  7
SURVEY
 72
1
 11
5071.97665339555
 21
8002.191201948004
 31
0.0
100
AcDbText
 73
1
  0
TEXT
  5
A0
330
17
100
AcDbEntity
  8
V-PROP-TEXT
100
AcDbText
 10
5102.626400903596
 20
8071.419758033576
 30
0.0
 40
2.4
  1
N00°47'20"W 140.00'
 50
90.78888888888889
  7
SURVEY
 72
1
 11
5102.626400903596
 21
8071.419758033576
 31
0.0
100
AcDbText
 73
1
  0
TEXT
  5
A1
330
17
100
AcDbEntity
  8
V-PROP-TEXT
100
AcDbText
 10
4997.836334599013
 20
8069.97684296989
 30
0.0
 40
2.4
  1
N00°47'20"W 140.00'
 50
90.78888888888889
  7
SURVEY
 72
1
 11
4997.836334599013
 21
8069.97684296989
 31
0.0
100
AcDbText
 73
1
  0
TEXT
  5
A2
330
17
100
AcDbEntity
  8
V-PROP-TEXT
100
AcDbText
 10
5048.053934076807
 20
8141.675048684452
 30
0.0
 40
2.4
  1
S89°12'40"W 100.00'
 50
0.7888888888888889
  7
SURVEY
 72
1
 11
5048.053934076807
 21
8141.675048684452
 31
0.0
100
AcDbText
 73
1
  0
TEXT
  5
A3
330
17
100
AcDbEntity
  8
V-PROP-TEXT
100
AcDbText
 10
5028.4551097519525
 20
8112.402432042212
 30
0.0
 40
3.0
  1
LOT 8
 50
0.7888888888888889
  7
SURVEY
 72
1
 11
5028.4551097519525
 21
8112.402432042212
 31
0.0
100
AcDbText
 73
2
  0
TEXT
  5
A4
330
17
100
AcDbEntity
  8
V-PROP-TEXT
100
AcDbText
 10
5028.51706698274
 20
8107.902858584478
 30
0.0
 40
2.4
  1
BLOCK 3
 50
0.7888888888888889
  7
SURVEY
 72
1
 11
5028.51706698274
 21
8107.902858584478
 31
0.0
100
AcDbText
 73
2
  0
TEXT
  5
A5
330
17
100
AcDbEntity
  8
V-PROP-TEXT
100
AcDbText
 10
4963.970697037816
 20
8074.511001389454
 30
0.0
 40
3.0
  1
LOT 7
 50
0.7888888888888889
  7
SURVEY
 72
1
 11
4963.970697037816
 21
8074.511001389454
 31
0.0
100
AcDbText
 73
2
  0
TEXT
  5
A6
330
17
100
AcDbEntity
  8
V-PROP-TEXT
100
AcDbText
 10
5136.954298857405
 20
8076.892912706417
 30
0.0
 40
3.0
  1
LOT 9
 50
0.7888888888888889
  7
SURVEY
 72
1
 11
5136.954298857405
 21
8076.892912706417
 31
0.0
100
AcDbText
 73
2
  0
INSERT
  5
A7
330
17
100
AcDbEntity
  8
V-CTRL-MONU
100
AcDbBlockReference
  2
FIR
 10
5000.0
 20
8000.0
 30
0.0
 50
0.7888888888888889
  0
INSERT
  5
A9
330
17
100
AcDbEntity
  8
V-CTRL-MONU
100
AcDbBlockReference
  2
FIR
 10
5099.990521282999
 20
8001.376827350846
 30
0.0
 50
0.7888888888888889
  0
INSERT
  5
AB
330
17
100
AcDbEntity
  8
V-CTRL-MONU
100
AcDbBlockReference
  2
FIR
 10
5098.062962991815
 20
8141.363557147045
 30
0.0
 50
0.7888888888888889
  0
INSERT
  5
AD
330
17
100
AcDbEntity
  8
V-CTRL-MONU
100
AcDbBlockReference
  2
FIR
 10
4998.072441708816
 20
8139.986729796199
 30
0.0
 50
0.7888888888888889
  0
INSERT
  5
AF
330
17
100
AcDbEntity
  8
V-CTRL-MONU
100
AcDbBlockReference
  2
MON-CASE
 10
4950.417787563753
 20
7969.314429939678
 30
0.0
 50
0.7888888888888889
  0
INSERT
  5
B1
330
17
100
AcDbEntity
  8
V-CTRL-MONU
100
AcDbBlockReference
  2
MON-CASE
 10
5160.397882258052
 20
7972.205767376454
 30
0.0
 50
0.7888888888888889
  0
LINE
  5
B3
330
17
100
AcDbEntity
  8
V-ROAD-SWLK
100
AcDbLine
 10
4930.013519238654
 20
7998.536268247994
 30
0.0
 11
5174.990296382003
 21
8001.909495257565
 31
0.0
  0
LINE
  5
B4
330
17
100
AcDbEntity
  8
V-ROAD-SWLK
100
AcDbLine
 10
4930.082360606197
 20
7993.536742183844
 30
0.0
 11
5100.066246787295
 21
7995.877348680281
 31
0.0
  0
LINE
  5
B5
330
17
100
AcDbEntity
  8
V-ROAD-SWLK
100
AcDbLine
 10
5100.066246787295
 20
7995.877348680281
 30
0.0
 11
5175.059137749546
 21
7996.909969193415
 31
0.0
  0
LINE
  5
B6
330
17
100
AcDbEntity
  8
V-ROAD-CURB
100
AcDbLine
 10
4930.164970247248
 20
7987.537310906863
 30
0.0
 11
5175.141747390597
 21
7990.910537916435
 31
0.0
  0
LINE
  5
B7
330
17
100
AcDbEntity
  8
V-ROAD-CURB
100
AcDbLine
 10
4930.171854384002
 20
7987.037358300448
 30
0.0
 11
5175.1486315273505
 21
7990.41058531002
 31
0.0
  0
LINE
  5
B8
330
17
100
AcDbEntity
  8
V-ROAD-CURB
100
AcDbLine
 10
4930.192506794265
 20
7985.537500481203
 30
0.0
 11
5175.169283937614
 21
7988.910727490775
 31
0.0
  0
LINE
  5
B9
330
17
100
AcDbEntity
  8
V-ROAD-CURB
100
AcDbLine
 10
4930.646859820044
 20
7952.540628457814
 30
0.0
 11
5175.6236369633925
 21
7955.9138554673855
 31
0.0
  0
LINE
  5
BA
330
17
100
AcDbEntity
  8
V-ROAD-CURB
100
AcDbLine
 10
4930.667512230306
 20
7951.040770638569
 30
0.0
 11
5175.644289373655
 21
7954.41399764814
 31
0.0
  0
LINE
  5
BB
330
17
100
AcDbEntity
  8
V-ROAD-CURB
100
AcDbLine
 10
4930.674396367061
 20
7950.540818032154
 30
0.0
 11
5175.6511735104095
 21
7953.914045041725
 31
0.0
  0
LINE
  5
BC
330
17
100
AcDbEntity
  8
V-ROAD-SWLK
100
AcDbLine
 10
4930.757006008112
 20
7944.541386755173
 30
0.0
 11
5175.733783151461
 21
7947.914613764745
 31
0.0
  0
LINE
  5
BD
330
17
100
AcDbEntity
  8
V-ROAD-SWLK
100
AcDbLine
 10
4930.825847375653
 20
7939.541860691023
 30
0.0
 11
5175.802624519002
 21
7942.915087700595
 31
0.0
  0
LWPOLYLINE
  5
BE
330
17
100
AcDbEntity
  8
V-BLDG-OTLN
100
AcDbPolyline
 90
6
 70
1
 10
5021.722549212091
 20
8020.301006273786
 10
5045.7202743200105
 20
8020.631444837989
 10
5045.651432952468
 20
8025.630970902139
 10
5080.1481627951025
 20
8026.10597633818
 10
5079.63873667529
 20
8063.10246921289
 10
5021.144281724735
 20
8062.297025212646
  0
LWPOLYLINE
  5
BF
330
17
100
AcDbEntity
  8
V-SITE-CONC
100
AcDbPolyline
 90
4
 70
0
 10
5057.650295506428
 20
8025.79619018424
 10
5057.760441694496
 20
8017.7969484816
 10
5065.759683397136
 20
8017.907094669668
 10
5065.649537209068
 20
8025.906336372308
  0
LINE
  5
C0
330
17
100
AcDbEntity
  8
V-SITE-CONC
100
AcDbLine
 10
5045.706506046502
 20
8021.6313500508195
 30
0.0
 11
5057.705368600462
 21
8021.796569332921
 31
0.0
  0
LINE
  5
C1
330
17
100
AcDbEntity
  8
V-SITE-CONC
100
AcDbLine
 10
5043.761768714876
 20
8017.604192652482
 30
0.0
 11
5057.760441694496
 21
8017.7969484816
 31
0.0
  0
LINE
  5
C2
330
17
100
AcDbEntity
  8
V-SITE-CONC
100
AcDbLine
 10
5023.722359637751
 20
8020.328542820803
 30
0.0
 11
5024.004609244674
 21
7999.830485957788
 31
0.0
  0
LINE
  5
C3
330
17
100
AcDbEntity
  8
V-SITE-CONC
100
AcDbLine
 10
5043.72046389435
 20
8020.603908290972
 30
0.0
 11
5044.002713501273
 21
8000.1058514279575
 31
0.0
  0
LINE
  5
C4
330
17
100
AcDbEntity
  8
V-SITE-CONC
100
AcDbLine
 10
5024.073450612216
 20
7994.8309598936385
 30
0.0
 11
5022.156249827607
 21
7988.803992069641
 31
0.0
  0
LINE
  5
C5
330
17
100
AcDbEntity
  8
V-SITE-CONC
100
AcDbLine
 10
5044.071554868816
 20
7995.106325363808
 30
0.0
 11
5046.153974935527
 21
7989.134430633844
 31
0.0
  0
LINE
  5
C6
330
17
100
AcDbEntity
  8
V-SITE-CONC
100
AcDbLine
 10
5029.143523427375
 20
8062.407171400713
 30
0.0
 11
5028.978304145274
 21
8074.406033954673
 31
0.0
  0
LINE
  5
C7
330
17
100
AcDbEntity
  8
V-SITE-CONC
100
AcDbLine
 10
5028.978304145274
 20
8074.406033954673
 30
0.0
 11
5050.9762188275345
 21
8074.708935971859
 31
0.0
  0
LINE
  5
C8
330
17
100
AcDbEntity
  8
V-SITE-CONC
100
AcDbLine
 10
5050.9762188275345
 20
8074.708935971859
 30
0.0
 11
5051.141438109636
 21
8062.710073417899
 31
0.0
  0
TEXT
  5
C9
330
17
100
AcDbEntity
  8
V-ANNO-TEXT
100
AcDbText
 10
5040.059871127455
 20
8068.558053686286
 30
0.0
 40
1.7999999999999998
  1
CONC PATIO
 50
0.7888888888888889
  7
SURVEY
 72
1
 11
5040.059871127455
 21
8068.558053686286
 31
0.0
100
AcDbText
 73
2
  0
TEXT
  5
CA
330
17
100
AcDbEntity
  8
V-ANNO-TEXT
100
AcDbText
 10
5033.927935868677
 20
8005.467647363437
 30
0.0
 40
1.7999999999999998
  1
CONC DRWY
 50
0.7888888888888889
  7
SURVEY
 72
1
 11
5033.927935868677
 21
8005.467647363437
 31
0.0
100
AcDbText
 73
2
  0
LINE
  5
CB
330
17
100
AcDbEntity
  8
V-SITE-FENC
100
AcDbLine
 10
5000.242650169865
 20
8055.008554979158
 30
0.0
 11
5021.240659639295
 21
8055.297688722836
 31
0.0
  0
LINE
  5
CC
330
17
100
AcDbEntity
  8
V-SITE-FENC
100
AcDbLine
 10
5079.735114589849
 20
8056.10313272308
 30
0.0
 11
5098.233361027204
 21
8056.357845782987
 31
0.0
  0
LINE
  5
CD
330
17
100
AcDbEntity
  8
V-SITE-FENC
100
AcDbLine
 10
5000.242650169865
 20
8055.008554979158
 30
0.0
 11
4999.086115195154
 21
8139.000592856878
 31
0.0
  0
LINE
  5
CE
330
17
100
AcDbEntity
  8
V-SITE-FENC
100
AcDbLine
 10
4999.086115195154
 20
8139.000592856878
 30
0.0
 11
5097.076826052494
 21
8140.349883660707
 31
0.0
  0
LINE
  5
CF
330
17
100
AcDbEntity
  8
V-SITE-FENC
100
AcDbLine
 10
5098.233361027204
 20
8056.357845782987
 30
0.0
 11
5097.076826052494
 21
8140.349883660707
 31
0.0
  0
INSERT
  5
D0
330
17
100
AcDbEntity
  8
V-SITE-VEGE
100
AcDbBlockReference
  2
TREE-DECID
 10
5009.379479820419
 20
8045.133417312434
 30
0.0
 50
0.7888888888888889
  0
INSERT
  5
D2
330
17
100
AcDbEntity
  8
V-SITE-VEGE
100
AcDbBlockReference
  2
TREE-DECID
 10
5058.410961316327
 20
8115.815195885957
 30
0.0
 50
0.7888888888888889
  0
INSERT
  5
D4
330
17
100
AcDbEntity
  8
V-SITE-VEGE
100
AcDbBlockReference
  2
TREE-DECID
 10
5120.105655864421
 20
7993.15299851196
 30
0.0
 50
0.7888888888888889
  0
INSERT
  5
D6
330
17
100
AcDbEntity
  8
V-SITE-VEGE
100
AcDbBlockReference
  2
TREE-DECID
 10
5086.614831378193
 20
8101.202129351743
 30
0.0
  0
INSERT
  5
D8
330
17
100
AcDbEntity
  8
V-STRM-STRC
100
AcDbBlockReference
  2
CB
 10
5092.170267135969
 20
7988.267913395988
 30
0.0
 50
0.7888888888888889
  0
INSERT
  5
DA
330
17
100
AcDbEntity
  8
V-STRM-STRC
100
AcDbBlockReference
  2
CB
 10
5092.638388435257
 20
7954.2711361597685
 30
0.0
 50
0.7888888888888889
  0
LINE
  5
DC
330
17
100
AcDbEntity
  8
V-STRM-PIPE
100
AcDbLine
 10
5092.1840354094775
 20
7987.268008183158
 30
0.0
 11
5092.624620161749
 21
7955.271041372598
 31
0.0
  0
INSERT
  5
DD
330
17
100
AcDbEntity
  8
V-SSWR-STRC
100
AcDbBlockReference
  2
SSMH
 10
5040.326647077403
 20
7976.553005832418
 30
0.0
  0
LINE
  5
DF
330
17
100
AcDbEntity
  8
V-SSWR-PIPE
100
AcDbLine
 10
4930.337073666104
 20
7975.0384957464885
 30
0.0
 11
5038.326836651743
 21
7976.525469285401
 31
0.0
  0
LINE
  5
E0
330
17
100
AcDbEntity
  8
V-SSWR-PIPE
100
AcDbLine
 10
5042.326457503063
 20
7976.580542379435
 30
0.0
 11
5175.313850809453
 21
7978.41172275606
 31
0.0
  0
LINE
  5
E1
330
17
100
AcDbEntity
  8
V-WATR-PIPE
100
AcDbLine
 10
4930.502292948205
 20
7963.0396331925285
 30
0.0
 11
5175.479070091554
 21
7966.4128602021
 31
0.0
  0
LINE
  5
E2
330
17
100
AcDbEntity
  8
V-WATR-PIPE
100
AcDbLine
 10
5078.488264447044
 20
7965.07733767178
 30
0.0
 11
5078.120651544368
 21
7991.774806854341
 31
0.0
  0
INSERT
  5
E3
330
17
100
AcDbEntity
  8
V-WATR-STRC
100
AcDbBlockReference
  2
WM
 10
5078.109636925561
 20
7992.574731024604
 30
0.0
 50
0.7888888888888889
  0
INSERT
  5
E5
330
17
100
AcDbEntity
  8
V-WATR-STRC
100
AcDbBlockReference
  2
FH
 10
4980.118926068222
 20
7991.225440220775
 30
0.0
 50
0.7888888888888889
  0
INSERT
  5
E7
330
17
100
AcDbEntity
  8
V-POWR-POLE
100
AcDbBlockReference
  2
PP
 10
4960.120821811622
 20
7990.950074750606
 30
0.0
 50
0.7888888888888889
  0
INSERT
  5
E9
330
17
100
AcDbEntity
  8
V-POWR-POLE
100
AcDbBlockReference
  2
PP
 10
5150.102812249321
 20
7993.566046717213
 30
0.0
 50
0.7888888888888889
  0
LINE
  5
EB
330
17
100
AcDbEntity
  8
V-POWR-OVHD
100
AcDbLine
 10
4961.120727024452
 20
7990.963843024115
 30
0.0
 11
5149.102907036491
 21
7993.552278443704
 31
0.0
  0
TEXT
  5
EC
330
17
100
AcDbEntity
  8
V-ANNO-TEXT
100
AcDbText
 10
5010.281301735223
 20
7979.639625872069
 30
0.0
 40
3.0
  1
MAPLE STREET
 50
0.7888888888888889
  7
SURVEY
 72
1
 11
5010.281301735223
 21
7979.639625872069
 31
0.0
100
AcDbText
 73
2
  0
TEXT
  5
ED
330
17
100
AcDbEntity
  8
V-ANNO-TEXT
100
AcDbText
 10
5130.5590610185
 20
7960.2938092236545
 30
0.0
 40
2.4
  1
(60' PUBLIC R/W)
 50
0.7888888888888889
  7
SURVEY
 72
1
 11
5130.5590610185
 21
7960.2938092236545
 31
0.0
100
AcDbText
 73
2
  0
MULTILEADER
  5
EE
330
17
100
AcDbEntity
  8
V-ANNO-TEXT
100
AcDbMLeader
270
2
300
CONTEXT_DATA{
 40
1.0
 10
5050.103966693058
 20
7933.494669628643
 30
0.0
 41
2.4
140
4.0
145
0.8
174
1
175
1
176
0
177
0
290
1
304
SSMH\PRIM=310.12\PIE 8" E=301.40\PIE 8" W=301.52
 11
0.0
 21
0.0
 31
1.0
340
2F
 12
5050.9039666930585
 22
7934.694669628643
 32
0.0
 13
1.0
 23
0.0
 33
0.0
 42
0.0
 43
0.0
 44
0.0
 45
1.0
170
1
 90
-1056964608
171
1
172
1
 91
-939524096
141
1.5
 92
0
291
0
292
0
173
0
293
0
142
0.0
143
0.0
294
0
295
1
296
0
110
0.0
120
0.0
130
0.0
111
1.0
121
0.0
131
0.0
112
0.0
122
1.0
132
0.0
297
0
302
LEADER{
290
1
291
1
 10
5047.103966693058
 20
7933.494669628643
 30
0.0
 11
1.0
 21
0.0
 31
0.0
 90
0
 40
3.0
304
LEADER_LINE{
 10
5041.151354139982
 20
7974.7641910681305
 30
0.0
 91
0
 92
-1056964608
305
}
271
0
303
}
272
9
273
9
301
}
340
53
 90
2147483647
170
1
 91
-1056964608
341
25
171
-2
290
1
291
1
 41
3.0
 42
1.7999999999999998
172
2
343
2F
173
1
 95
1
174
1
175
0
 92
-1056964608
292
0
 93
-1056964608
 10
1.0
 20
1.0
 30
1.0
 43
0.0
176
0
293
0
294
0
178
0
179
1
 45
1.0
271
0
272
9
273
9
295
0
  0
MTEXT
  5
EF
330
17
100
AcDbEntity
  8
V-ANNO-TEXT
100
AcDbMText
 10
5050.646222259918
 20
8044.201500775413
 30
0.0
 40
2.4
 41
40.0
 71
5
  1
1-STORY WOOD FRAME\PHOUSE\PFF=314.20
  7
SURVEY
 50
0.7888888888888889
  0
MULTILEADER
  5
F0
330
17
100
AcDbEntity
  8
V-ANNO-TEXT
100
AcDbMLeader
270
2
300
CONTEXT_DATA{
 40
1.0
 10
5110.969091460824
 20
8016.340530038227
 30
0.0
 41
2.4
140
4.0
145
0.8
174
1
175
1
176
0
177
0
290
1
304
CB TYPE 1\PRIM=310.58\PIE 12" S=307.18
 11
0.0
 21
0.0
 31
1.0
340
2F
 12
5111.769091460824
 22
8017.540530038227
 32
0.0
 13
1.0
 23
0.0
 33
0.0
 42
0.0
 43
0.0
 44
0.0
 45
1.0
170
1
 90
-1056964608
171
1
172
1
 91
-939524096
141
1.5
 92
0
291
0
292
0
173
0
293
0
142
0.0
143
0.0
294
0
295
1
296
0
110
0.0
120
0.0
130
0.0
111
1.0
121
0.0
131
0.0
112
0.0
122
1.0
132
0.0
297
0
302
LEADER{
290
1
291
1
 10
5107.969091460824
 20
8016.340530038227
 30
0.0
 11
1.0
 21
0.0
 31
0.0
 90
0
 40
3.0
304
LEADER_LINE{
 10
5093.360515599909
 20
7988.98436897318
 30
0.0
 91
0
 92
-1056964608
305
}
271
0
303
}
272
9
273
9
301
}
340
53
 90
2147483647
170
1
 91
-1056964608
341
25
171
-2
290
1
291
1
 41
3.0
 42
1.7999999999999998
172
2
343
2F
173
1
 95
1
174
1
175
0
 92
-1056964608
292
0
 93
-1056964608
 10
1.0
 20
1.0
 30
1.0
 43
0.0
176
0
293
0
294
0
178
0
179
1
 45
1.0
271
0
272
9
273
9
295
0
  0
DIMENSION
  5
F1
330
17
100
AcDbEntity
  8
V-ANNO-DIMS
100
AcDbDimension
280
0
  2
*D1
  3
SRV-30
 10
5017.72292836077
 20
8020.245933179744
 30
0.0
 11
5019.960412042798
 21
8010.275794425794
 31
0.0
 70
32
 71
5
  1
<>
100
AcDbAlignedDimension
 13
5021.722549212091
 23
8020.301006273786
 33
0.0
 14
5021.99791468226
 24
8000.302902017186
 34
0.0
 50
-89.21111111111098
100
AcDbRotatedDimension
  0
DIMENSION
  5
104
330
17
100
AcDbEntity
  8
V-ANNO-DIMS
100
AcDbDimension
280
0
  2
*D2
  3
SRV-30
 10
5080.079321427561
 20
8031.10550240233
 30
0.0
 11
5089.799483878285
 21
8033.339544015981
 31
0.0
 70
32
 71
5
  1
<>
100
AcDbAlignedDimension
 13
5080.1481627951025
 23
8026.10597633818
 33
0.0
 14
5099.646314445287
 24
8026.374457671595
 34
0.0
 50
0.7888888888902902
100
AcDbRotatedDimension
  0
INSERT
  5
113
330
17
100
AcDbEntity
  8
V-NODE
100
AcDbBlockReference
 66
1
  2
SRV-PT
 10
5000.0
 20
8000.0
 30
0.0
  0
ATTRIB
  5
115
330
17
100
AcDbEntity
  8
0
100
AcDbText
 10
5001.1
 20
8001.1
 30
0.0
 40
1.7999999999999998
  1
1
  7
SURVEY
 11
5001.1
 21
8001.1
 31
0.0
100
AcDbAttribute
  2
PNT
 70
0
 71
1
 72
0
 11
5001.1
 21
8001.1
 31
0.0
  0
ATTRIB
  5
116
330
17
100
AcDbEntity
  8
0
100
AcDbText
 10
5001.1
 20
7999.1
 30
0.0
 40
1.7999999999999998
  1
312.10
  7
SURVEY
 11
5001.1
 21
7999.1
 31
0.0
100
AcDbAttribute
  2
ELEV
 70
0
 71
1
 72
0
 11
5001.1
 21
7999.1
 31
0.0
  0
ATTRIB
  5
117
330
17
100
AcDbEntity
  8
0
100
AcDbText
 10
5001.1
 20
7996.7
 30
0.0
 40
1.7999999999999998
  1
FIR 1/2
  7
SURVEY
 11
5001.1
 21
7996.7
 31
0.0
100
AcDbAttribute
  2
DESC
 70
0
 71
1
 72
0
 11
5001.1
 21
7996.7
 31
0.0
  0
SEQEND
  5
114
330
113
100
AcDbEntity
  8
V-NODE
  0
INSERT
  5
118
330
17
100
AcDbEntity
  8
V-NODE
100
AcDbBlockReference
 66
1
  2
SRV-PT
 10
5099.990521282999
 20
8001.376827350846
 30
0.0
  0
ATTRIB
  5
11A
330
17
100
AcDbEntity
  8
0
100
AcDbText
 10
5101.090521282999
 20
8002.476827350846
 30
0.0
 40
1.7999999999999998
  1
2
  7
SURVEY
 11
5101.090521282999
 21
8002.476827350846
 31
0.0
100
AcDbAttribute
  2
PNT
 70
0
 71
1
 72
0
 11
5101.090521282999
 21
8002.476827350846
 31
0.0
  0
ATTRIB
  5
11B
330
17
100
AcDbEntity
  8
0
100
AcDbText
 10
5101.090521282999
 20
8000.476827350846
 30
0.0
 40
1.7999999999999998
  1
311.62
  7
SURVEY
 11
5101.090521282999
 21
8000.476827350846
 31
0.0
100
AcDbAttribute
  2
ELEV
 70
0
 71
1
 72
0
 11
5101.090521282999
 21
8000.476827350846
 31
0.0
  0
ATTRIB
  5
11C
330
17
100
AcDbEntity
  8
0
100
AcDbText
 10
5101.090521282999
 20
7998.076827350846
 30
0.0
 40
1.7999999999999998
  1
FIR 1/2
  7
SURVEY
 11
5101.090521282999
 21
7998.076827350846
 31
0.0
100
AcDbAttribute
  2
DESC
 70
0
 71
1
 72
0
 11
5101.090521282999
 21
7998.076827350846
 31
0.0
  0
SEQEND
  5
119
330
118
100
AcDbEntity
  8
V-NODE
  0
INSERT
  5
11D
330
17
100
AcDbEntity
  8
V-NODE
100
AcDbBlockReference
 66
1
  2
SRV-PT
 10
5098.062962991815
 20
8141.363557147045
 30
0.0
  0
ATTRIB
  5
11F
330
17
100
AcDbEntity
  8
0
100
AcDbText
 10
5099.162962991815
 20
8142.463557147045
 30
0.0
 40
1.7999999999999998
  1
3
  7
SURVEY
 11
5099.162962991815
 21
8142.463557147045
 31
0.0
100
AcDbAttribute
  2
PNT
 70
0
 71
1
 72
0
 11
5099.162962991815
 21
8142.463557147045
 31
0.0
  0
ATTRIB
  5
120
330
17
100
AcDbEntity
  8
0
100
AcDbText
 10
5099.162962991815
 20
8140.463557147045
 30
0.0
 40
1.7999999999999998
  1
318.44
  7
SURVEY
 11
5099.162962991815
 21
8140.463557147045
 31
0.0
100
AcDbAttribute
  2
ELEV
 70
0
 71
1
 72
0
 11
5099.162962991815
 21
8140.463557147045
 31
0.0
  0
ATTRIB
  5
121
330
17
100
AcDbEntity
  8
0
100
AcDbText
 10
5099.162962991815
 20
8138.063557147045
 30
0.0
 40
1.7999999999999998
  1
FIR 1/2
  7
SURVEY
 11
5099.162962991815
 21
8138.063557147045
 31
0.0
100
AcDbAttribute
  2
DESC
 70
0
 71
1
 72
0
 11
5099.162962991815
 21
8138.063557147045
 31
0.0
  0
SEQEND
  5
11E
330
11D
100
AcDbEntity
  8
V-NODE
  0
INSERT
  5
122
330
17
100
AcDbEntity
  8
V-NODE
100
AcDbBlockReference
 66
1
  2
SRV-PT
 10
4998.072441708816
 20
8139.986729796199
 30
0.0
  0
ATTRIB
  5
124
330
17
100
AcDbEntity
  8
0
100
AcDbText
 10
4999.172441708816
 20
8141.0867297961995
 30
0.0
 40
1.7999999999999998
  1
4
  7
SURVEY
 11
4999.172441708816
 21
8141.0867297961995
 31
0.0
100
AcDbAttribute
  2
PNT
 70
0
 71
1
 72
0
 11
4999.172441708816
 21
8141.0867297961995
 31
0.0
  0
ATTRIB
  5
125
330
17
100
AcDbEntity
  8
0
100
AcDbText
 10
4999.172441708816
 20
8139.0867297961995
 30
0.0
 40
1.7999999999999998
  1
318.87
  7
SURVEY
 11
4999.172441708816
 21
8139.0867297961995
 31
0.0
100
AcDbAttribute
  2
ELEV
 70
0
 71
1
 72
0
 11
4999.172441708816
 21
8139.0867297961995
 31
0.0
  0
ATTRIB
  5
126
330
17
100
AcDbEntity
  8
0
100
AcDbText
 10
4999.172441708816
 20
8136.686729796199
 30
0.0
 40
1.7999999999999998
  1
FIR 1/2
  7
SURVEY
 11
4999.172441708816
 21
8136.686729796199
 31
0.0
100
AcDbAttribute
  2
DESC
 70
0
 71
1
 72
0
 11
4999.172441708816
 21
8136.686729796199
 31
0.0
  0
SEQEND
  5
123
330
122
100
AcDbEntity
  8
V-NODE
  0
INSERT
  5
127
330
17
100
AcDbEntity
  8
V-NODE
100
AcDbBlockReference
 66
1
  2
SRV-PT
 10
4950.417787563753
 20
7969.314429939678
 30
0.0
  0
ATTRIB
  5
129
330
17
100
AcDbEntity
  8
0
100
AcDbText
 10
4951.517787563754
 20
7970.4144299396785
 30
0.0
 40
1.7999999999999998
  1
10
  7
SURVEY
 11
4951.517787563754
 21
7970.4144299396785
 31
0.0
100
AcDbAttribute
  2
PNT
 70
0
 71
1
 72
0
 11
4951.517787563754
 21
7970.4144299396785
 31
0.0
  0
ATTRIB
  5
12A
330
17
100
AcDbEntity
  8
0
100
AcDbText
 10
4951.517787563754
 20
7968.4144299396785
 30
0.0
 40
1.7999999999999998
  1
309.95
  7
SURVEY
 11
4951.517787563754
 21
7968.4144299396785
 31
0.0
100
AcDbAttribute
  2
ELEV
 70
0
 71
1
 72
0
 11
4951.517787563754
 21
7968.4144299396785
 31
0.0
  0
ATTRIB
  5
12B
330
17
100
AcDbEntity
  8
0
100
AcDbText
 10
4951.517787563754
 20
7966.014429939678
 30
0.0
 40
1.7999999999999998
  1
MON CASE
  7
SURVEY
 11
4951.517787563754
 21
7966.014429939678
 31
0.0
100
AcDbAttribute
  2
DESC
 70
0
 71
1
 72
0
 11
4951.517787563754
 21
7966.014429939678
 31
0.0
  0
SEQEND
  5
128
330
127
100
AcDbEntity
  8
V-NODE
  0
INSERT
  5
12C
330
17
100
AcDbEntity
  8
V-NODE
100
AcDbBlockReference
 66
1
  2
SRV-PT
 10
5160.397882258052
 20
7972.205767376454
 30
0.0
  0
ATTRIB
  5
12E
330
17
100
AcDbEntity
  8
0
100
AcDbText
 10
5161.497882258052
 20
7973.305767376454
 30
0.0
 40
1.7999999999999998
  1
11
  7
SURVEY
 11
5161.497882258052
 21
7973.305767376454
 31
0.0
100
AcDbAttribute
  2
PNT
 70
0
 71
1
 72
0
 11
5161.497882258052
 21
7973.305767376454
 31
0.0
  0
ATTRIB
  5
12F
330
17
100
AcDbEntity
  8
0
100
AcDbText
 10
5161.497882258052
 20
7971.305767376454
 30
0.0
 40
1.7999999999999998
  1
309.41
  7
SURVEY
 11
5161.497882258052
 21
7971.305767376454
 31
0.0
100
AcDbAttribute
  2
ELEV
 70
0
 71
1
 72
0
 11
5161.497882258052
 21
7971.305767376454
 31
0.0
  0
ATTRIB
  5
130
330
17
100
AcDbEntity
  8
0
100
AcDbText
 10
5161.497882258052
 20
7968.905767376454
 30
0.0
 40
1.7999999999999998
  1
MON CASE
  7
SURVEY
 11
5161.497882258052
 21
7968.905767376454
 31
0.0
100
AcDbAttribute
  2
DESC
 70
0
 71
1
 72
0
 11
5161.497882258052
 21
7968.905767376454
 31
0.0
  0
SEQEND
  5
12D
330
12C
100
AcDbEntity
  8
V-NODE
  0
INSERT
  5
131
330
17
100
AcDbEntity
  8
V-NODE
100
AcDbBlockReference
 66
1
  2
SRV-PT
 10
5092.170267135969
 20
7988.267913395988
 30
0.0
  0
ATTRIB
  5
133
330
17
100
AcDbEntity
  8
0
100
AcDbText
 10
5093.270267135969
 20
7989.367913395989
 30
0.0
 40
1.7999999999999998
  1
20
  7
SURVEY
 11
5093.270267135969
 21
7989.367913395989
 31
0.0
100
AcDbAttribute
  2
PNT
 70
0
 71
1
 72
0
 11
5093.270267135969
 21
7989.367913395989
 31
0.0
  0
ATTRIB
  5
134
330
17
100
AcDbEntity
  8
0
100
AcDbText
 10
5093.270267135969
 20
7987.367913395989
 30
0.0
 40
1.7999999999999998
  1
310.58
  7
SURVEY
 11
5093.270267135969
 21
7987.367913395989
 31
0.0
100
AcDbAttribute
  2
ELEV
 70
0
 71
1
 72
0
 11
5093.270267135969
 21
7987.367913395989
 31
0.0
  0
ATTRIB
  5
135
330
17
100
AcDbEntity
  8
0
100
AcDbText
 10
5093.270267135969
 20
7984.967913395988
 30
0.0
 40
1.7999999999999998
  1
CB RIM
  7
SURVEY
 11
5093.270267135969
 21
7984.967913395988
 31
0.0
100
AcDbAttribute
  2
DESC
 70
0
 71
1
 72
0
 11
5093.270267135969
 21
7984.967913395988
 31
0.0
  0
SEQEND
  5
132
330
131
100
AcDbEntity
  8
V-NODE
  0
INSERT
  5
136
330
17
100
AcDbEntity
  8
V-NODE
100
AcDbBlockReference
 66
1
  2
SRV-PT
 10
5092.638388435257
 20
7954.2711361597685
 30
0.0
  0
ATTRIB
  5
138
330
17
100
AcDbEntity
  8
0
100
AcDbText
 10
5093.738388435258
 20
7955.371136159769
 30
0.0
 40
1.7999999999999998
  1
21
  7
SURVEY
 11
5093.738388435258
 21
7955.371136159769
 31
0.0
100
AcDbAttribute
  2
PNT
 70
0
 71
1
 72
0
 11
5093.738388435258
 21
7955.371136159769
 31
0.0
  0
ATTRIB
  5
139
330
17
100
AcDbEntity
  8
0
100
AcDbText
 10
5093.738388435258
 20
7953.371136159769
 30
0.0
 40
1.7999999999999998
  1
310.41
  7
SURVEY
 11
5093.738388435258
 21
7953.371136159769
 31
0.0
100
AcDbAttribute
  2
ELEV
 70
0
 71
1
 72
0
 11
5093.738388435258
 21
7953.371136159769
 31
0.0
  0
ATTRIB
  5
13A
330
17
100
AcDbEntity
  8
0
100
AcDbText
 10
5093.738388435258
 20
7950.971136159768
 30
0.0
 40
1.7999999999999998
  1
CB RIM
  7
SURVEY
 11
5093.738388435258
 21
7950.971136159768
 31
0.0
100
AcDbAttribute
  2
DESC
 70
0
 71
1
 72
0
 11
5093.738388435258
 21
7950.971136159768
 31
0.0
  0
SEQEND
  5
137
330
136
100
AcDbEntity
  8
V-NODE
  0
INSERT
  5
13B
330
17
100
AcDbEntity
  8
V-NODE
100
AcDbBlockReference
 66
1
  2
SRV-PT
 10
5040.326647077403
 20
7976.553005832418
 30
0.0
  0
ATTRIB
  5
13D
330
17
100
AcDbEntity
  8
0
100
AcDbText
 10
5041.426647077404
 20
7977.653005832419
 30
0.0
 40
1.7999999999999998
  1
22
  7
SURVEY
 11
5041.426647077404
 21
7977.653005832419
 31
0.0
100
AcDbAttribute
  2
PNT
 70
0
 71
1
 72
0
 11
5041.426647077404
 21
7977.653005832419
 31
0.0
  0
ATTRIB
  5
13E
330
17
100
AcDbEntity
  8
0
100
AcDbText
 10
5041.426647077404
 20
7975.653005832419
 30
0.0
 40
1.7999999999999998
  1
310.12
  7
SURVEY
 11
5041.426647077404
 21
7975.653005832419
 31
0.0
100
AcDbAttribute
  2
ELEV
 70
0
 71
1
 72
0
 11
5041.426647077404
 21
7975.653005832419
 31
0.0
  0
ATTRIB
  5
13F
330
17
100
AcDbEntity
  8
0
100
AcDbText
 10
5041.426647077404
 20
7973.253005832418
 30
0.0
 40
1.7999999999999998
  1
SSMH RIM
  7
SURVEY
 11
5041.426647077404
 21
7973.253005832418
 31
0.0
100
AcDbAttribute
  2
DESC
 70
0
 71
1
 72
0
 11
5041.426647077404
 21
7973.253005832418
 31
0.0
  0
SEQEND
  5
13C
330
13B
100
AcDbEntity
  8
V-NODE
  0
INSERT
  5
140
330
17
100
AcDbEntity
  8
V-NODE
100
AcDbBlockReference
 66
1
  2
SRV-PT
 10
5078.109636925561
 20
7992.574731024604
 30
0.0
  0
ATTRIB
  5
142
330
17
100
AcDbEntity
  8
0
100
AcDbText
 10
5079.209636925561
 20
7993.674731024605
 30
0.0
 40
1.7999999999999998
  1
23
  7
SURVEY
 11
5079.209636925561
 21
7993.674731024605
 31
0.0
100
AcDbAttribute
  2
PNT
 70
0
 71
1
 72
0
 11
5079.209636925561
 21
7993.674731024605
 31
0.0
  0
ATTRIB
  5
143
330
17
100
AcDbEntity
  8
0
100
AcDbText
 10
5079.209636925561
 20
7991.674731024605
 30
0.0
 40
1.7999999999999998
  1
311.02
  7
SURVEY
 11
5079.209636925561
 21
7991.674731024605
 31
0.0
100
AcDbAttribute
  2
ELEV
 70
0
 71
1
 72
0
 11
5079.209636925561
 21
7991.674731024605
 31
0.0
  0
ATTRIB
  5
144
330
17
100
AcDbEntity
  8
0
100
AcDbText
 10
5079.209636925561
 20
7989.274731024604
 30
0.0
 40
1.7999999999999998
  1
WM
  7
SURVEY
 11
5079.209636925561
 21
7989.274731024604
 31
0.0
100
AcDbAttribute
  2
DESC
 70
0
 71
1
 72
0
 11
5079.209636925561
 21
7989.274731024604
 31
0.0
  0
SEQEND
  5
141
330
140
100
AcDbEntity
  8
V-NODE
  0
INSERT
  5
145
330
17
100
AcDbEntity
  8
V-NODE
100
AcDbBlockReference
 66
1
  2
SRV-PT
 10
4980.118926068222
 20
7991.225440220775
 30
0.0
  0
ATTRIB
  5
147
330
17
100
AcDbEntity
  8
0
100
AcDbText
 10
4981.218926068223
 20
7992.325440220776
 30
0.0
 40
1.7999999999999998
  1
24
  7
SURVEY
 11
4981.218926068223
 21
7992.325440220776
 31
0.0
100
AcDbAttribute
  2
PNT
 70
0
 71
1
 72
0
 11
4981.218926068223
 21
7992.325440220776
 31
0.0
  0
ATTRIB
  5
148
330
17
100
AcDbEntity
  8
0
100
AcDbText
 10
4981.218926068223
 20
7990.325440220776
 30
0.0
 40
1.7999999999999998
  1
311.40
  7
SURVEY
 11
4981.218926068223
 21
7990.325440220776
 31
0.0
100
AcDbAttribute
  2
ELEV
 70
0
 71
1
 72
0
 11
4981.218926068223
 21
7990.325440220776
 31
0.0
  0
ATTRIB
  5
149
330
17
100
AcDbEntity
  8
0
100
AcDbText
 10
4981.218926068223
 20
7987.925440220775
 30
0.0
 40
1.7999999999999998
  1
FH
  7
SURVEY
 11
4981.218926068223
 21
7987.925440220775
 31
0.0
100
AcDbAttribute
  2
DESC
 70
0
 71
1
 72
0
 11
4981.218926068223
 21
7987.925440220775
 31
0.0
  0
SEQEND
  5
146
330
145
100
AcDbEntity
  8
V-NODE
  0
INSERT
  5
14A
330
17
100
AcDbEntity
  8
V-NODE
100
AcDbBlockReference
 66
1
  2
SRV-PT
 10
4960.120821811622
 20
7990.950074750606
 30
0.0
  0
ATTRIB
  5
14C
330
17
100
AcDbEntity
  8
0
100
AcDbText
 10
4961.220821811622
 20
7992.050074750607
 30
0.0
 40
1.7999999999999998
  1
25
  7
SURVEY
 11
4961.220821811622
 21
7992.050074750607
 31
0.0
100
AcDbAttribute
  2
PNT
 70
0
 71
1
 72
0
 11
4961.220821811622
 21
7992.050074750607
 31
0.0
  0
ATTRIB
  5
14D
330
17
100
AcDbEntity
  8
0
100
AcDbText
 10
4961.220821811622
 20
7990.050074750607
 30
0.0
 40
1.7999999999999998
  1
311.35
  7
SURVEY
 11
4961.220821811622
 21
7990.050074750607
 31
0.0
100
AcDbAttribute
  2
ELEV
 70
0
 71
1
 72
0
 11
4961.220821811622
 21
7990.050074750607
 31
0.0
  0
ATTRIB
  5
14E
330
17
100
AcDbEntity
  8
0
100
AcDbText
 10
4961.220821811622
 20
7987.650074750606
 30
0.0
 40
1.7999999999999998
  1
PP
  7
SURVEY
 11
4961.220821811622
 21
7987.650074750606
 31
0.0
100
AcDbAttribute
  2
DESC
 70
0
 71
1
 72
0
 11
4961.220821811622
 21
7987.650074750606
 31
0.0
  0
SEQEND
  5
14B
330
14A
100
AcDbEntity
  8
V-NODE
  0
INSERT
  5
14F
330
17
100
AcDbEntity
  8
V-NODE
100
AcDbBlockReference
 66
1
  2
SRV-PT
 10
5150.102812249321
 20
7993.566046717213
 30
0.0
  0
ATTRIB
  5
151
330
17
100
AcDbEntity
  8
0
100
AcDbText
 10
5151.202812249321
 20
7994.666046717213
 30
0.0
 40
1.7999999999999998
  1
26
  7
SURVEY
 11
5151.202812249321
 21
7994.666046717213
 31
0.0
100
AcDbAttribute
  2
PNT
 70
0
 71
1
 72
0
 11
5151.202812249321
 21
7994.666046717213
 31
0.0
  0
ATTRIB
  5
152
330
17
100
AcDbEntity
  8
0
100
AcDbText
 10
5151.202812249321
 20
7992.666046717213
 30
0.0
 40
1.7999999999999998
  1
310.80
  7
SURVEY
 11
5151.202812249321
 21
7992.666046717213
 31
0.0
100
AcDbAttribute
  2
ELEV
 70
0
 71
1
 72
0
 11
5151.202812249321
 21
7992.666046717213
 31
0.0
  0
ATTRIB
  5
153
330
17
100
AcDbEntity
  8
0
100
AcDbText
 10
5151.202812249321
 20
7990.266046717213
 30
0.0
 40
1.7999999999999998
  1
PP
  7
SURVEY
 11
5151.202812249321
 21
7990.266046717213
 31
0.0
100
AcDbAttribute
  2
DESC
 70
0
 71
1
 72
0
 11
5151.202812249321
 21
7990.266046717213
 31
0.0
  0
SEQEND
  5
150
330
14F
100
AcDbEntity
  8
V-NODE
  0
INSERT
  5
154
330
17
100
AcDbEntity
  8
V-NODE
100
AcDbBlockReference
 66
1
  2
SRV-PT
 10
5009.379479820419
 20
8045.133417312434
 30
0.0
  0
ATTRIB
  5
156
330
17
100
AcDbEntity
  8
0
100
AcDbText
 10
5010.479479820419
 20
8046.2334173124345
 30
0.0
 40
1.7999999999999998
  1
30
  7
SURVEY
 11
5010.479479820419
 21
8046.2334173124345
 31
0.0
100
AcDbAttribute
  2
PNT
 70
0
 71
1
 72
0
 11
5010.479479820419
 21
8046.2334173124345
 31
0.0
  0
ATTRIB
  5
157
330
17
100
AcDbEntity
  8
0
100
AcDbText
 10
5010.479479820419
 20
8044.2334173124345
 30
0.0
 40
1.7999999999999998
  1
314.05
  7
SURVEY
 11
5010.479479820419
 21
8044.2334173124345
 31
0.0
100
AcDbAttribute
  2
ELEV
 70
0
 71
1
 72
0
 11
5010.479479820419
 21
8044.2334173124345
 31
0.0
  0
ATTRIB
  5
158
330
17
100
AcDbEntity
  8
0
100
AcDbText
 10
5010.479479820419
 20
8041.833417312434
 30
0.0
 40
1.7999999999999998
  1
TREE 24 MAPLE
  7
SURVEY
 11
5010.479479820419
 21
8041.833417312434
 31
0.0
100
AcDbAttribute
  2
DESC
 70
0
 71
1
 72
0
 11
5010.479479820419
 21
8041.833417312434
 31
0.0
  0
SEQEND
  5
155
330
154
100
AcDbEntity
  8
V-NODE
  0
INSERT
  5
159
330
17
100
AcDbEntity
  8
V-NODE
100
AcDbBlockReference
 66
1
  2
SRV-PT
 10
5086.614831378193
 20
8101.202129351743
 30
0.0
  0
ATTRIB
  5
15B
330
17
100
AcDbEntity
  8
0
100
AcDbText
 10
5087.714831378194
 20
8102.302129351743
 30
0.0
 40
1.7999999999999998
  1
31
  7
SURVEY
 11
5087.714831378194
 21
8102.302129351743
 31
0.0
100
AcDbAttribute
  2
PNT
 70
0
 71
1
 72
0
 11
5087.714831378194
 21
8102.302129351743
 31
0.0
  0
ATTRIB
  5
15C
330
17
100
AcDbEntity
  8
0
100
AcDbText
 10
5087.714831378194
 20
8100.302129351743
 30
0.0
 40
1.7999999999999998
  1
316.72
  7
SURVEY
 11
5087.714831378194
 21
8100.302129351743
 31
0.0
100
AcDbAttribute
  2
ELEV
 70
0
 71
1
 72
0
 11
5087.714831378194
 21
8100.302129351743
 31
0.0
  0
ATTRIB
  5
15D
330
17
100
AcDbEntity
  8
0
100
AcDbText
 10
5087.714831378194
 20
8097.902129351743
 30
0.0
 40
1.7999999999999998
  1
TREE 18 MAPLE
  7
SURVEY
 11
5087.714831378194
 21
8097.902129351743
 31
0.0
100
AcDbAttribute
  2
DESC
 70
0
 71
1
 72
0
 11
5087.714831378194
 21
8097.902129351743
 31
0.0
  0
SEQEND
  5
15A
330
159
100
AcDbEntity
  8
V-NODE
  0
INSERT
  5
15E
330
17
100
AcDbEntity
  8
V-NODE
100
AcDbBlockReference
 66
1
  2
SRV-PT
 10
5058.410961316327
 20
8115.815195885957
 30
0.0
  0
ATTRIB
  5
160
330
17
100
AcDbEntity
  8
0
100
AcDbText
 10
5059.510961316328
 20
8116.9151958859575
 30
0.0
 40
1.7999999999999998
  1
32
  7
SURVEY
 11
5059.510961316328
 21
8116.9151958859575
 31
0.0
100
AcDbAttribute
  2
PNT
 70
0
 71
1
 72
0
 11
5059.510961316328
 21
8116.9151958859575
 31
0.0
  0
ATTRIB
  5
161
330
17
100
AcDbEntity
  8
0
100
AcDbText
 10
5059.510961316328
 20
8114.9151958859575
 30
0.0
 40
1.7999999999999998
  1
317.30
  7
SURVEY
 11
5059.510961316328
 21
8114.9151958859575
 31
0.0
100
AcDbAttribute
  2
ELEV
 70
0
 71
1
 72
0
 11
5059.510961316328
 21
8114.9151958859575
 31
0.0
  0
ATTRIB
  5
162
330
17
100
AcDbEntity
  8
0
100
AcDbText
 10
5059.510961316328
 20
8112.515195885957
 30
0.0
 40
1.7999999999999998
  1
TREE 30 OAK
  7
SURVEY
 11
5059.510961316328
 21
8112.515195885957
 31
0.0
100
AcDbAttribute
  2
DESC
 70
0
 71
1
 72
0
 11
5059.510961316328
 21
8112.515195885957
 31
0.0
  0
SEQEND
  5
15F
330
15E
100
AcDbEntity
  8
V-NODE
  0
INSERT
  5
163
330
17
100
AcDbEntity
  8
V-NODE
100
AcDbBlockReference
 66
1
  2
SRV-PT
 10
5120.105655864421
 20
7993.15299851196
 30
0.0
  0
ATTRIB
  5
165
330
17
100
AcDbEntity
  8
0
100
AcDbText
 10
5121.205655864422
 20
7994.25299851196
 30
0.0
 40
1.7999999999999998
  1
33
  7
SURVEY
 11
5121.205655864422
 21
7994.25299851196
 31
0.0
100
AcDbAttribute
  2
PNT
 70
0
 71
1
 72
0
 11
5121.205655864422
 21
7994.25299851196
 31
0.0
  0
ATTRIB
  5
166
330
17
100
AcDbEntity
  8
0
100
AcDbText
 10
5121.205655864422
 20
7992.25299851196
 30
0.0
 40
1.7999999999999998
  1
310.95
  7
SURVEY
 11
5121.205655864422
 21
7992.25299851196
 31
0.0
100
AcDbAttribute
  2
ELEV
 70
0
 71
1
 72
0
 11
5121.205655864422
 21
7992.25299851196
 31
0.0
  0
ATTRIB
  5
167
330
17
100
AcDbEntity
  8
0
100
AcDbText
 10
5121.205655864422
 20
7989.852998511959
 30
0.0
 40
1.7999999999999998
  1
TREE 8 CHERRY
  7
SURVEY
 11
5121.205655864422
 21
7989.852998511959
 31
0.0
100
AcDbAttribute
  2
DESC
 70
0
 71
1
 72
0
 11
5121.205655864422
 21
7989.852998511959
 31
0.0
  0
SEQEND
  5
164
330
163
100
AcDbEntity
  8
V-NODE
  0
INSERT
  5
168
330
17
100
AcDbEntity
  8
V-NODE
100
AcDbBlockReference
 66
1
  2
SRV-PT
 10
5061.649916357748
 20
8025.851263278274
 30
0.0
  0
ATTRIB
  5
16A
330
17
100
AcDbEntity
  8
0
100
AcDbText
 10
5062.749916357749
 20
8026.951263278274
 30
0.0
 40
1.7999999999999998
  1
40
  7
SURVEY
 11
5062.749916357749
 21
8026.951263278274
 31
0.0
100
AcDbAttribute
  2
PNT
 70
0
 71
1
 72
0
 11
5062.749916357749
 21
8026.951263278274
 31
0.0
  0
ATTRIB
  5
16B
330
17
100
AcDbEntity
  8
0
100
AcDbText
 10
5062.749916357749
 20
8024.951263278274
 30
0.0
 40
1.7999999999999998
  1
314.20
  7
SURVEY
 11
5062.749916357749
 21
8024.951263278274
 31
0.0
100
AcDbAttribute
  2
ELEV
 70
0
 71
1
 72
0
 11
5062.749916357749
 21
8024.951263278274
 31
0.0
  0
ATTRIB
  5
16C
330
17
100
AcDbEntity
  8
0
100
AcDbText
 10
5062.749916357749
 20
8022.551263278274
 30
0.0
 40
1.7999999999999998
  1
FF
  7
SURVEY
 11
5062.749916357749
 21
8022.551263278274
 31
0.0
100
AcDbAttribute
  2
DESC
 70
0
 71
1
 72
0
 11
5062.749916357749
 21
8022.551263278274
 31
0.0
  0
SEQEND
  5
169
330
168
100
AcDbEntity
  8
V-NODE
  0
INSERT
  5
16D
330
17
100
AcDbEntity
  8
V-NODE
100
AcDbBlockReference
 66
1
  2
SRV-PT
 10
5027.832126677139
 20
8012.384374212197
 30
0.0
  0
ATTRIB
  5
16F
330
17
100
AcDbEntity
  8
0
100
AcDbText
 10
5028.932126677139
 20
8013.4843742121975
 30
0.0
 40
1.7999999999999998
  1
41
  7
SURVEY
 11
5028.932126677139
 21
8013.4843742121975
 31
0.0
100
AcDbAttribute
  2
PNT
 70
0
 71
1
 72
0
 11
5028.932126677139
 21
8013.4843742121975
 31
0.0
  0
ATTRIB
  5
170
330
17
100
AcDbEntity
  8
0
100
AcDbText
 10
5028.932126677139
 20
8011.4843742121975
 30
0.0
 40
1.7999999999999998
  1
312.95
  7
SURVEY
 11
5028.932126677139
 21
8011.4843742121975
 31
0.0
100
AcDbAttribute
  2
ELEV
 70
0
 71
1
 72
0
 11
5028.932126677139
 21
8011.4843742121975
 31
0.0
  0
ATTRIB
  5
171
330
17
100
AcDbEntity
  8
0
100
AcDbText
 10
5028.932126677139
 20
8009.084374212197
 30
0.0
 40
1.7999999999999998
  1
CONC
  7
SURVEY
 11
5028.932126677139
 21
8009.084374212197
 31
0.0
100
AcDbAttribute
  2
DESC
 70
0
 71
1
 72
0
 11
5028.932126677139
 21
8009.084374212197
 31
0.0
  0
SEQEND
  5
16E
330
16D
100
AcDbEntity
  8
V-NODE
  0
INSERT
  5
172
330
17
100
AcDbEntity
  8
V-NODE
100
AcDbBlockReference
 66
1
  2
SRV-PT
 10
5005.586383071726
 20
8030.07976602595
 30
0.0
  0
ATTRIB
  5
174
330
17
100
AcDbEntity
  8
0
100
AcDbText
 10
5006.686383071727
 20
8031.179766025951
 30
0.0
 40
1.7999999999999998
  1
50
  7
SURVEY
 11
5006.686383071727
 21
8031.179766025951
 31
0.0
100
AcDbAttribute
  2
PNT
 70
0
 71
1
 72
0
 11
5006.686383071727
 21
8031.179766025951
 31
0.0
  0
ATTRIB
  5
175
330
17
100
AcDbEntity
  8
0
100
AcDbText
 10
5006.686383071727
 20
8029.179766025951
 30
0.0
 40
1.7999999999999998
  1
313.40
  7
SURVEY
 11
5006.686383071727
 21
8029.179766025951
 31
0.0
100
AcDbAttribute
  2
ELEV
 70
0
 71
1
 72
0
 11
5006.686383071727
 21
8029.179766025951
 31
0.0
  0
ATTRIB
  5
176
330
17
100
AcDbEntity
  8
0
100
AcDbText
 10
5006.686383071727
 20
8026.77976602595
 30
0.0
 40
1.7999999999999998
  1
GS
  7
SURVEY
 11
5006.686383071727
 21
8026.77976602595
 31
0.0
100
AcDbAttribute
  2
DESC
 70
0
 71
1
 72
0
 11
5006.686383071727
 21
8026.77976602595
 31
0.0
  0
SEQEND
  5
173
330
172
100
AcDbEntity
  8
V-NODE
  0
INSERT
  5
177
330
17
100
AcDbEntity
  8
V-NODE
100
AcDbBlockReference
 66
1
  2
SRV-PT
 10
5069.855682163015
 20
8010.962831273891
 30
0.0
  0
ATTRIB
  5
179
330
17
100
AcDbEntity
  8
0
100
AcDbText
 10
5070.955682163016
 20
8012.062831273892
 30
0.0
 40
1.7999999999999998
  1
51
  7
SURVEY
 11
5070.955682163016
 21
8012.062831273892
 31
0.0
100
AcDbAttribute
  2
PNT
 70
0
 71
1
 72
0
 11
5070.955682163016
 21
8012.062831273892
 31
0.0
  0
ATTRIB
  5
17A
330
17
100
AcDbEntity
  8
0
100
AcDbText
 10
5070.955682163016
 20
8010.062831273892
 30
0.0
 40
1.7999999999999998
  1
312.70
  7
SURVEY
 11
5070.955682163016
 21
8010.062831273892
 31
0.0
100
AcDbAttribute
  2
ELEV
 70
0
 71
1
 72
0
 11
5070.955682163016
 21
8010.062831273892
 31
0.0
  0
ATTRIB
  5
17B
330
17
100
AcDbEntity
  8
0
100
AcDbText
 10
5070.955682163016
 20
8007.662831273891
 30
0.0
 40
1.7999999999999998
  1
GS
  7
SURVEY
 11
5070.955682163016
 21
8007.662831273891
 31
0.0
100
AcDbAttribute
  2
DESC
 70
0
 71
1
 72
0
 11
5070.955682163016
 21
8007.662831273891
 31
0.0
  0
SEQEND
  5
178
330
177
100
AcDbEntity
  8
V-NODE
  0
INSERT
  5
17C
330
17
100
AcDbEntity
  8
V-NODE
100
AcDbBlockReference
 66
1
  2
SRV-PT
 10
5089.440738214361
 20
8041.235353128961
 30
0.0
  0
ATTRIB
  5
17E
330
17
100
AcDbEntity
  8
0
100
AcDbText
 10
5090.540738214361
 20
8042.335353128961
 30
0.0
 40
1.7999999999999998
  1
52
  7
SURVEY
 11
5090.540738214361
 21
8042.335353128961
 31
0.0
100
AcDbAttribute
  2
PNT
 70
0
 71
1
 72
0
 11
5090.540738214361
 21
8042.335353128961
 31
0.0
  0
ATTRIB
  5
17F
330
17
100
AcDbEntity
  8
0
100
AcDbText
 10
5090.540738214361
 20
8040.335353128961
 30
0.0
 40
1.7999999999999998
  1
313.95
  7
SURVEY
 11
5090.540738214361
 21
8040.335353128961
 31
0.0
100
AcDbAttribute
  2
ELEV
 70
0
 71
1
 72
0
 11
5090.540738214361
 21
8040.335353128961
 31
0.0
  0
ATTRIB
  5
180
330
17
100
AcDbEntity
  8
0
100
AcDbText
 10
5090.540738214361
 20
8037.935353128961
 30
0.0
 40
1.7999999999999998
  1
GS
  7
SURVEY
 11
5090.540738214361
 21
8037.935353128961
 31
0.0
100
AcDbAttribute
  2
DESC
 70
0
 71
1
 72
0
 11
5090.540738214361
 21
8037.935353128961
 31
0.0
  0
SEQEND
  5
17D
330
17C
100
AcDbEntity
  8
V-NODE
  0
INSERT
  5
181
330
17
100
AcDbEntity
  8
V-NODE
100
AcDbBlockReference
 66
1
  2
SRV-PT
 10
5008.759907512539
 20
8090.129151889783
 30
0.0
  0
ATTRIB
  5
183
330
17
100
AcDbEntity
  8
0
100
AcDbText
 10
5009.859907512539
 20
8091.229151889784
 30
0.0
 40
1.7999999999999998
  1
53
  7
SURVEY
 11
5009.859907512539
 21
8091.229151889784
 31
0.0
100
AcDbAttribute
  2
PNT
 70
0
 71
1
 72
0
 11
5009.859907512539
 21
8091.229151889784
 31
0.0
  0
ATTRIB
  5
184
330
17
100
AcDbEntity
  8
0
100
AcDbText
 10
5009.859907512539
 20
8089.229151889784
 30
0.0
 40
1.7999999999999998
  1
316.10
  7
SURVEY
 11
5009.859907512539
 21
8089.229151889784
 31
0.0
100
AcDbAttribute
  2
ELEV
 70
0
 71
1
 72
0
 11
5009.859907512539
 21
8089.229151889784
 31
0.0
  0
ATTRIB
  5
185
330
17
100
AcDbEntity
  8
0
100
AcDbText
 10
5009.859907512539
 20
8086.829151889783
 30
0.0
 40
1.7999999999999998
  1
GS
  7
SURVEY
 11
5009.859907512539
 21
8086.829151889783
 31
0.0
100
AcDbAttribute
  2
DESC
 70
0
 71
1
 72
0
 11
5009.859907512539
 21
8086.829151889783
 31
0.0
  0
SEQEND
  5
182
330
181
100
AcDbEntity
  8
V-NODE
  0
INSERT
  5
186
330
17
100
AcDbEntity
  8
V-NODE
100
AcDbBlockReference
 66
1
  2
SRV-PT
 10
5038.619381162354
 20
8100.541252223337
 30
0.0
  0
ATTRIB
  5
188
330
17
100
AcDbEntity
  8
0
100
AcDbText
 10
5039.719381162355
 20
8101.641252223338
 30
0.0
 40
1.7999999999999998
  1
54
  7
SURVEY
 11
5039.719381162355
 21
8101.641252223338
 31
0.0
100
AcDbAttribute
  2
PNT
 70
0
 71
1
 72
0
 11
5039.719381162355
 21
8101.641252223338
 31
0.0
  0
ATTRIB
  5
189
330
17
100
AcDbEntity
  8
0
100
AcDbText
 10
5039.719381162355
 20
8099.641252223338
 30
0.0
 40
1.7999999999999998
  1
316.50
  7
SURVEY
 11
5039.719381162355
 21
8099.641252223338
 31
0.0
100
AcDbAttribute
  2
ELEV
 70
0
 71
1
 72
0
 11
5039.719381162355
 21
8099.641252223338
 31
0.0
  0
ATTRIB
  5
18A
330
17
100
AcDbEntity
  8
0
100
AcDbText
 10
5039.719381162355
 20
8097.241252223337
 30
0.0
 40
1.7999999999999998
  1
GS
  7
SURVEY
 11
5039.719381162355
 21
8097.241252223337
 31
0.0
100
AcDbAttribute
  2
DESC
 70
0
 71
1
 72
0
 11
5039.719381162355
 21
8097.241252223337
 31
0.0
  0
SEQEND
  5
187
330
186
100
AcDbEntity
  8
V-NODE
  0
INSERT
  5
18B
330
17
100
AcDbEntity
  8
V-NODE
100
AcDbBlockReference
 66
1
  2
SRV-PT
 10
5078.230078017317
 20
8129.089329122916
 30
0.0
  0
ATTRIB
  5
18D
330
17
100
AcDbEntity
  8
0
100
AcDbText
 10
5079.330078017318
 20
8130.189329122916
 30
0.0
 40
1.7999999999999998
  1
55
  7
SURVEY
 11
5079.330078017318
 21
8130.189329122916
 31
0.0
100
AcDbAttribute
  2
PNT
 70
0
 71
1
 72
0
 11
5079.330078017318
 21
8130.189329122916
 31
0.0
  0
ATTRIB
  5
18E
330
17
100
AcDbEntity
  8
0
100
AcDbText
 10
5079.330078017318
 20
8128.189329122916
 30
0.0
 40
1.7999999999999998
  1
318.05
  7
SURVEY
 11
5079.330078017318
 21
8128.189329122916
 31
0.0
100
AcDbAttribute
  2
ELEV
 70
0
 71
1
 72
0
 11
5079.330078017318
 21
8128.189329122916
 31
0.0
  0
ATTRIB
  5
18F
330
17
100
AcDbEntity
  8
0
100
AcDbText
 10
5079.330078017318
 20
8125.789329122916
 30
0.0
 40
1.7999999999999998
  1
GS
  7
SURVEY
 11
5079.330078017318
 21
8125.789329122916
 31
0.0
100
AcDbAttribute
  2
DESC
 70
0
 71
1
 72
0
 11
5079.330078017318
 21
8125.789329122916
 31
0.0
  0
SEQEND
  5
18C
330
18B
100
AcDbEntity
  8
V-NODE
  0
INSERT
  5
190
330
17
100
AcDbEntity
  8
V-NODE
100
AcDbBlockReference
 66
1
  2
SRV-PT
 10
5018.2357652475175
 20
8128.263232712408
 30
0.0
  0
ATTRIB
  5
192
330
17
100
AcDbEntity
  8
0
100
AcDbText
 10
5019.335765247518
 20
8129.363232712409
 30
0.0
 40
1.7999999999999998
  1
56
  7
SURVEY
 11
5019.335765247518
 21
8129.363232712409
 31
0.0
100
AcDbAttribute
  2
PNT
 70
0
 71
1
 72
0
 11
5019.335765247518
 21
8129.363232712409
 31
0.0
  0
ATTRIB
  5
193
330
17
100
AcDbEntity
  8
0
100
AcDbText
 10
5019.335765247518
 20
8127.363232712409
 30
0.0
 40
1.7999999999999998
  1
318.30
  7
SURVEY
 11
5019.335765247518
 21
8127.363232712409
 31
0.0
100
AcDbAttribute
  2
ELEV
 70
0
 71
1
 72
0
 11
5019.335765247518
 21
8127.363232712409
 31
0.0
  0
ATTRIB
  5
194
330
17
100
AcDbEntity
  8
0
100
AcDbText
 10
5019.335765247518
 20
8124.963232712408
 30
0.0
 40
1.7999999999999998
  1
GS
  7
SURVEY
 11
5019.335765247518
 21
8124.963232712408
 31
0.0
100
AcDbAttribute
  2
DESC
 70
0
 71
1
 72
0
 11
5019.335765247518
 21
8124.963232712408
 31
0.0
  0
SEQEND
  5
191
330
190
100
AcDbEntity
  8
V-NODE
  0
VIEWPORT
  5
199
330
195
100
AcDbEntity
 67
1
  8
VIEWPORTS
100
AcDbViewport
 10
8.5
 20
5.5
 30
0.0
 40
18.700000000000003
 41
12.100000000000001
 68
1
 69
1
 12
8.5
 22
5.5
 13
0.0
 23
0.0
 14
10.0
 24
10.0
 15
10.0
 25
10.0
 16
0.0
 26
0.0
 36
1.0
 17
0.0
 27
0.0
 37
0.0
 42
50.0
 43
0.0
 44
0.0
 45
12.100000000000001
 50
0.0
 51
0.0
 72
100
 90
557088
  1

281
0
 71
0
 74
0
110
0.0
120
0.0
130
0.0
111
1.0
121
0.0
131
0.0
112
0.0
122
1.0
132
0.0
 79
0
146
0.0
282
0
  0
LWPOLYLINE
  5
19A
330
195
100
AcDbEntity
 67
1
  8
V-ANNO-TTLB
100
AcDbPolyline
 90
4
 70
1
 43
0.02
 10
0.5
 20
0.5
 10
16.5
 20
0.5
 10
16.5
 20
10.5
 10
0.5
 20
10.5
  0
LINE
  5
19B
330
195
100
AcDbEntity
 67
1
  8
V-ANNO-TTLB
100
AcDbLine
 10
13.5
 20
0.5
 30
0.0
 11
13.5
 21
10.5
 31
0.0
  0
TEXT
  5
19C
330
195
100
AcDbEntity
 67
1
  8
V-ANNO-TTLB
100
AcDbText
 10
13.65
 20
10.1
 30
0.0
 40
0.2
  1
PARAMETRIX
  7
SURVEY
 11
13.65
 21
10.1
 31
0.0
100
AcDbText
  0
TEXT
  5
19D
330
195
100
AcDbEntity
 67
1
  8
V-ANNO-TTLB
100
AcDbText
 10
13.65
 20
9.85
 30
0.0
 40
0.09
  1
SURVEY CAD TRAINING - LEVEL 1
  7
SURVEY
 11
13.65
 21
9.85
 31
0.0
100
AcDbText
  0
LINE
  5
19E
330
195
100
AcDbEntity
 67
1
  8
V-ANNO-TTLB
100
AcDbLine
 10
13.5
 20
9.7
 30
0.0
 11
16.5
 21
9.7
 31
0.0
  0
TEXT
  5
19F
330
195
100
AcDbEntity
 67
1
  8
V-ANNO-TTLB
100
AcDbText
 10
13.65
 20
9.4
 30
0.0
 40
0.14
  1
TOPOGRAPHIC SURVEY
  7
SURVEY
 11
13.65
 21
9.4
 31
0.0
100
AcDbText
  0
TEXT
  5
1A0
330
195
100
AcDbEntity
 67
1
  8
V-ANNO-TTLB
100
AcDbText
 10
13.65
 20
9.18
 30
0.0
 40
0.09
  1
LOT 8, BLOCK 3
  7
SURVEY
 11
13.65
 21
9.18
 31
0.0
100
AcDbText
  0
TEXT
  5
1A1
330
195
100
AcDbEntity
 67
1
  8
V-ANNO-TTLB
100
AcDbText
 10
13.65
 20
9.0
 30
0.0
 40
0.09
  1
CEDAR PARK ADDITION
  7
SURVEY
 11
13.65
 21
9.0
 31
0.0
100
AcDbText
  0
TEXT
  5
1A2
330
195
100
AcDbEntity
 67
1
  8
V-ANNO-TTLB
100
AcDbText
 10
13.65
 20
8.82
 30
0.0
 40
0.07
  1
(FICTITIOUS SITE - TRAINING ONLY)
  7
SURVEY
 11
13.65
 21
8.82
 31
0.0
100
AcDbText
  0
LINE
  5
1A3
330
195
100
AcDbEntity
 67
1
  8
V-ANNO-TTLB
100
AcDbLine
 10
13.5
 20
8.65
 30
0.0
 11
16.5
 21
8.65
 31
0.0
  0
TEXT
  5
1A4
330
195
100
AcDbEntity
 67
1
  8
V-ANNO-TTLB
100
AcDbText
 10
13.65
 20
8.4
 30
0.0
 40
0.1
  1
LEGEND
  7
SURVEY
 11
13.65
 21
8.4
 31
0.0
100
AcDbText
  0
INSERT
  5
1A5
330
195
100
AcDbEntity
 67
1
  8
V-ANNO-TTLB
100
AcDbBlockReference
  2
FIR
 10
13.85
 20
8.18
 30
0.0
 41
0.06666666666666667
 42
0.06666666666666667
  0
TEXT
  5
1A7
330
195
100
AcDbEntity
 67
1
  8
V-ANNO-TTLB
100
AcDbText
 10
14.15
 20
8.15
 30
0.0
 40
0.07
  1
FOUND 1/2" IRON ROD
  7
SURVEY
 11
14.15
 21
8.15
 31
0.0
100
AcDbText
  0
INSERT
  5
1A8
330
195
100
AcDbEntity
 67
1
  8
V-ANNO-TTLB
100
AcDbBlockReference
  2
MON-CASE
 10
13.85
 20
7.94
 30
0.0
 41
0.06666666666666667
 42
0.06666666666666667
  0
TEXT
  5
1AA
330
195
100
AcDbEntity
 67
1
  8
V-ANNO-TTLB
100
AcDbText
 10
14.15
 20
7.91
 30
0.0
 40
0.07
  1
MONUMENT IN CASE
  7
SURVEY
 11
14.15
 21
7.91
 31
0.0
100
AcDbText
  0
INSERT
  5
1AB
330
195
100
AcDbEntity
 67
1
  8
V-ANNO-TTLB
100
AcDbBlockReference
 66
1
  2
SRV-PT
 10
13.85
 20
7.7
 30
0.0
 41
0.06666666666666667
 42
0.06666666666666667
  0
ATTRIB
  5
1AD
330
195
100
AcDbEntity
 67
1
  8
0
100
AcDbText
 10
13.923333333333334
 20
7.773333333333333
 30
0.0
 40
0.11999999999999998
  1

  7
SURVEY
 11
13.923333333333334
 21
7.773333333333333
 31
0.0
100
AcDbAttribute
  2
PNT
 70
0
 71
1
 72
0
 11
13.923333333333334
 21
7.773333333333333
 31
0.0
  0
ATTRIB
  5
1AE
330
195
100
AcDbEntity
 67
1
  8
0
100
AcDbText
 10
13.923333333333334
 20
7.640000000000001
 30
0.0
 40
0.11999999999999998
  1

  7
SURVEY
 11
13.923333333333334
 21
7.640000000000001
 31
0.0
100
AcDbAttribute
  2
ELEV
 70
0
 71
1
 72
0
 11
13.923333333333334
 21
7.640000000000001
 31
0.0
  0
ATTRIB
  5
1AF
330
195
100
AcDbEntity
 67
1
  8
0
100
AcDbText
 10
13.923333333333334
 20
7.48
 30
0.0
 40
0.11999999999999998
  1

  7
SURVEY
 11
13.923333333333334
 21
7.48
 31
0.0
100
AcDbAttribute
  2
DESC
 70
0
 71
1
 72
0
 11
13.923333333333334
 21
7.48
 31
0.0
  0
SEQEND
  5
1AC
330
1AB
100
AcDbEntity
 67
1
  8
V-ANNO-TTLB
  0
TEXT
  5
1B0
330
195
100
AcDbEntity
 67
1
  8
V-ANNO-TTLB
100
AcDbText
 10
14.15
 20
7.67
 30
0.0
 40
0.07
  1
SURVEY POINT
  7
SURVEY
 11
14.15
 21
7.67
 31
0.0
100
AcDbText
  0
INSERT
  5
1B1
330
195
100
AcDbEntity
 67
1
  8
V-ANNO-TTLB
100
AcDbBlockReference
  2
TREE-DECID
 10
13.85
 20
7.46
 30
0.0
 41
0.04
 42
0.04
  0
TEXT
  5
1B3
330
195
100
AcDbEntity
 67
1
  8
V-ANNO-TTLB
100
AcDbText
 10
14.15
 20
7.43
 30
0.0
 40
0.07
  1
DECIDUOUS TREE
  7
SURVEY
 11
14.15
 21
7.43
 31
0.0
100
AcDbText
  0
INSERT
  5
1B4
330
195
100
AcDbEntity
 67
1
  8
V-ANNO-TTLB
100
AcDbBlockReference
  2
CB
 10
13.85
 20
7.22
 30
0.0
 41
0.06666666666666667
 42
0.06666666666666667
  0
TEXT
  5
1B6
330
195
100
AcDbEntity
 67
1
  8
V-ANNO-TTLB
100
AcDbText
 10
14.15
 20
7.1899999999999995
 30
0.0
 40
0.07
  1
CATCH BASIN
  7
SURVEY
 11
14.15
 21
7.1899999999999995
 31
0.0
100
AcDbText
  0
INSERT
  5
1B7
330
195
100
AcDbEntity
 67
1
  8
V-ANNO-TTLB
100
AcDbBlockReference
  2
SSMH
 10
13.85
 20
6.9799999999999995
 30
0.0
 41
0.06666666666666667
 42
0.06666666666666667
  0
TEXT
  5
1B9
330
195
100
AcDbEntity
 67
1
  8
V-ANNO-TTLB
100
AcDbText
 10
14.15
 20
6.949999999999999
 30
0.0
 40
0.07
  1
SANITARY MANHOLE
  7
SURVEY
 11
14.15
 21
6.949999999999999
 31
0.0
100
AcDbText
  0
INSERT
  5
1BA
330
195
100
AcDbEntity
 67
1
  8
V-ANNO-TTLB
100
AcDbBlockReference
  2
WM
 10
13.85
 20
6.739999999999999
 30
0.0
 41
0.06666666666666667
 42
0.06666666666666667
  0
TEXT
  5
1BC
330
195
100
AcDbEntity
 67
1
  8
V-ANNO-TTLB
100
AcDbText
 10
14.15
 20
6.709999999999999
 30
0.0
 40
0.07
  1
WATER METER
  7
SURVEY
 11
14.15
 21
6.709999999999999
 31
0.0
100
AcDbText
  0
INSERT
  5
1BD
330
195
100
AcDbEntity
 67
1
  8
V-ANNO-TTLB
100
AcDbBlockReference
  2
FH
 10
13.85
 20
6.499999999999999
 30
0.0
 41
0.06666666666666667
 42
0.06666666666666667
  0
TEXT
  5
1BF
330
195
100
AcDbEntity
 67
1
  8
V-ANNO-TTLB
100
AcDbText
 10
14.15
 20
6.469999999999999
 30
0.0
 40
0.07
  1
FIRE HYDRANT
  7
SURVEY
 11
14.15
 21
6.469999999999999
 31
0.0
100
AcDbText
  0
INSERT
  5
1C0
330
195
100
AcDbEntity
 67
1
  8
V-ANNO-TTLB
100
AcDbBlockReference
  2
PP
 10
13.85
 20
6.259999999999999
 30
0.0
 41
0.06666666666666667
 42
0.06666666666666667
  0
TEXT
  5
1C2
330
195
100
AcDbEntity
 67
1
  8
V-ANNO-TTLB
100
AcDbText
 10
14.15
 20
6.229999999999999
 30
0.0
 40
0.07
  1
POWER POLE
  7
SURVEY
 11
14.15
 21
6.229999999999999
 31
0.0
100
AcDbText
  0
LINE
  5
1C3
330
195
100
AcDbEntity
 67
1
  8
V-ANNO-TTLB
  6
FENCE
 48
0.03333333333333333
100
AcDbLine
 10
13.65
 20
6.019999999999999
 30
0.0
 11
14.05
 21
6.019999999999999
 31
0.0
  0
TEXT
  5
1C4
330
195
100
AcDbEntity
 67
1
  8
V-ANNO-TTLB
100
AcDbText
 10
14.15
 20
5.989999999999998
 30
0.0
 40
0.07
  1
FENCE
  7
SURVEY
 11
14.15
 21
5.989999999999998
 31
0.0
100
AcDbText
  0
LINE
  5
1C5
330
195
100
AcDbEntity
 67
1
  8
V-ANNO-TTLB
  6
STORM
 48
0.03333333333333333
100
AcDbLine
 10
13.65
 20
5.7799999999999985
 30
0.0
 11
14.05
 21
5.7799999999999985
 31
0.0
  0
TEXT
  5
1C6
330
195
100
AcDbEntity
 67
1
  8
V-ANNO-TTLB
100
AcDbText
 10
14.15
 20
5.749999999999998
 30
0.0
 40
0.07
  1
STORM DRAIN
  7
SURVEY
 11
14.15
 21
5.749999999999998
 31
0.0
100
AcDbText
  0
LINE
  5
1C7
330
195
100
AcDbEntity
 67
1
  8
V-ANNO-TTLB
  6
SANITARY
 48
0.03333333333333333
100
AcDbLine
 10
13.65
 20
5.539999999999998
 30
0.0
 11
14.05
 21
5.539999999999998
 31
0.0
  0
TEXT
  5
1C8
330
195
100
AcDbEntity
 67
1
  8
V-ANNO-TTLB
100
AcDbText
 10
14.15
 20
5.509999999999998
 30
0.0
 40
0.07
  1
SANITARY SEWER
  7
SURVEY
 11
14.15
 21
5.509999999999998
 31
0.0
100
AcDbText
  0
LINE
  5
1C9
330
195
100
AcDbEntity
 67
1
  8
V-ANNO-TTLB
  6
WATER
 48
0.03333333333333333
100
AcDbLine
 10
13.65
 20
5.299999999999998
 30
0.0
 11
14.05
 21
5.299999999999998
 31
0.0
  0
TEXT
  5
1CA
330
195
100
AcDbEntity
 67
1
  8
V-ANNO-TTLB
100
AcDbText
 10
14.15
 20
5.269999999999998
 30
0.0
 40
0.07
  1
WATER LINE
  7
SURVEY
 11
14.15
 21
5.269999999999998
 31
0.0
100
AcDbText
  0
LINE
  5
1CB
330
195
100
AcDbEntity
 67
1
  8
V-ANNO-TTLB
  6
OVERHEAD
 48
0.03333333333333333
100
AcDbLine
 10
13.65
 20
5.059999999999998
 30
0.0
 11
14.05
 21
5.059999999999998
 31
0.0
  0
TEXT
  5
1CC
330
195
100
AcDbEntity
 67
1
  8
V-ANNO-TTLB
100
AcDbText
 10
14.15
 20
5.029999999999998
 30
0.0
 40
0.07
  1
OVERHEAD POWER
  7
SURVEY
 11
14.15
 21
5.029999999999998
 31
0.0
100
AcDbText
  0
LINE
  5
1CD
330
195
100
AcDbEntity
 67
1
  8
V-ANNO-TTLB
100
AcDbLine
 10
13.5
 20
4.839999999999997
 30
0.0
 11
16.5
 21
4.839999999999997
 31
0.0
  0
TEXT
  5
1CE
330
195
100
AcDbEntity
 67
1
  8
V-ANNO-TTLB
100
AcDbText
 10
13.65
 20
4.589999999999997
 30
0.0
 40
0.1
  1
NOTES
  7
SURVEY
 11
13.65
 21
4.589999999999997
 31
0.0
100
AcDbText
  0
TEXT
  5
1CF
330
195
100
AcDbEntity
 67
1
  8
V-ANNO-TTLB
100
AcDbText
 10
13.65
 20
4.429999999999997
 30
0.0
 40
0.065
  1
1. BASIS OF BEARINGS: N89°12'40"E ALONG
  7
SURVEY
 11
13.65
 21
4.429999999999997
 31
0.0
100
AcDbText
  0
TEXT
  5
1D0
330
195
100
AcDbEntity
 67
1
  8
V-ANNO-TTLB
100
AcDbText
 10
13.65
 20
4.269999999999997
 30
0.0
 40
0.065
  1
   THE NORTH R/W OF MAPLE STREET.
  7
SURVEY
 11
13.65
 21
4.269999999999997
 31
0.0
100
AcDbText
  0
TEXT
  5
1D1
330
195
100
AcDbEntity
 67
1
  8
V-ANNO-TTLB
100
AcDbText
 10
13.65
 20
4.109999999999997
 30
0.0
 40
0.065
  1
2. COORDINATES: ASSUMED LOCAL GRID,
  7
SURVEY
 11
13.65
 21
4.109999999999997
 31
0.0
100
AcDbText
  0
TEXT
  5
1D2
330
195
100
AcDbEntity
 67
1
  8
V-ANNO-TTLB
100
AcDbText
 10
13.65
 20
3.9499999999999966
 30
0.0
 40
0.065
  1
   SW LOT CORNER = N 8000.00, E 5000.00.
  7
SURVEY
 11
13.65
 21
3.9499999999999966
 31
0.0
100
AcDbText
  0
TEXT
  5
1D3
330
195
100
AcDbEntity
 67
1
  8
V-ANNO-TTLB
100
AcDbText
 10
13.65
 20
3.7899999999999965
 30
0.0
 40
0.065
  1
3. ELEVATIONS: ASSUMED DATUM.
  7
SURVEY
 11
13.65
 21
3.7899999999999965
 31
0.0
100
AcDbText
  0
TEXT
  5
1D4
330
195
100
AcDbEntity
 67
1
  8
V-ANNO-TTLB
100
AcDbText
 10
13.65
 20
3.6299999999999963
 30
0.0
 40
0.065
  1
4. UTILITIES SHOWN FROM SURFACE
  7
SURVEY
 11
13.65
 21
3.6299999999999963
 31
0.0
100
AcDbText
  0
TEXT
  5
1D5
330
195
100
AcDbEntity
 67
1
  8
V-ANNO-TTLB
100
AcDbText
 10
13.65
 20
3.469999999999996
 30
0.0
 40
0.065
  1
   EVIDENCE ONLY.
  7
SURVEY
 11
13.65
 21
3.469999999999996
 31
0.0
100
AcDbText
  0
INSERT
  5
1D6
330
195
100
AcDbEntity
 67
1
  8
V-ANNO-TTLB
100
AcDbBlockReference
  2
NORTH
 10
14.2
 20
1.95
 30
0.0
  0
SOLID
  5
1D8
330
195
100
AcDbEntity
 67
1
  8
V-ANNO-TTLB
100
AcDbTrace
 10
14.7
 20
1.8
 30
0.0
 11
15.1
 21
1.8
 31
0.0
 12
14.7
 22
1.86
 32
0.0
 13
15.1
 23
1.86
 33
0.0
  0
LWPOLYLINE
  5
1D9
330
195
100
AcDbEntity
 67
1
  8
V-ANNO-TTLB
100
AcDbPolyline
 90
4
 70
1
 10
14.7
 20
1.8
 10
15.1
 20
1.8
 10
15.1
 20
1.86
 10
14.7
 20
1.86
  0
LWPOLYLINE
  5
1DA
330
195
100
AcDbEntity
 67
1
  8
V-ANNO-TTLB
100
AcDbPolyline
 90
4
 70
1
 10
15.1
 20
1.8
 10
15.5
 20
1.8
 10
15.5
 20
1.86
 10
15.1
 20
1.86
  0
SOLID
  5
1DB
330
195
100
AcDbEntity
 67
1
  8
V-ANNO-TTLB
100
AcDbTrace
 10
15.5
 20
1.8
 30
0.0
 11
16.3
 21
1.8
 31
0.0
 12
15.5
 22
1.86
 32
0.0
 13
16.3
 23
1.86
 33
0.0
  0
LWPOLYLINE
  5
1DC
330
195
100
AcDbEntity
 67
1
  8
V-ANNO-TTLB
100
AcDbPolyline
 90
4
 70
1
 10
15.5
 20
1.8
 10
16.3
 20
1.8
 10
16.3
 20
1.86
 10
15.5
 20
1.86
  0
TEXT
  5
1DD
330
195
100
AcDbEntity
 67
1
  8
V-ANNO-TTLB
100
AcDbText
 10
14.7
 20
1.92
 30
0.0
 40
0.06
  1
0
  7
SURVEY
 72
1
 11
14.7
 21
1.92
 31
0.0
100
AcDbText
 73
1
  0
TEXT
  5
1DE
330
195
100
AcDbEntity
 67
1
  8
V-ANNO-TTLB
100
AcDbText
 10
15.1
 20
1.92
 30
0.0
 40
0.06
  1
15
  7
SURVEY
 72
1
 11
15.1
 21
1.92
 31
0.0
100
AcDbText
 73
1
  0
TEXT
  5
1DF
330
195
100
AcDbEntity
 67
1
  8
V-ANNO-TTLB
100
AcDbText
 10
15.5
 20
1.92
 30
0.0
 40
0.06
  1
30
  7
SURVEY
 72
1
 11
15.5
 21
1.92
 31
0.0
100
AcDbText
 73
1
  0
TEXT
  5
1E0
330
195
100
AcDbEntity
 67
1
  8
V-ANNO-TTLB
100
AcDbText
 10
16.3
 20
1.92
 30
0.0
 40
0.06
  1
60
  7
SURVEY
 72
1
 11
16.3
 21
1.92
 31
0.0
100
AcDbText
 73
1
  0
TEXT
  5
1E1
330
195
100
AcDbEntity
 67
1
  8
V-ANNO-TTLB
100
AcDbText
 10
15.5
 20
1.62
 30
0.0
 40
0.08
  1
SCALE: 1" = 30'
  7
SURVEY
 72
1
 11
15.5
 21
1.62
 31
0.0
100
AcDbText
 73
3
  0
LINE
  5
1E2
330
195
100
AcDbEntity
 67
1
  8
V-ANNO-TTLB
100
AcDbLine
 10
13.5
 20
1.2
 30
0.0
 11
16.5
 21
1.2
 31
0.0
  0
TEXT
  5
1E3
330
195
100
AcDbEntity
 67
1
  8
V-ANNO-TTLB
100
AcDbText
 10
13.65
 20
0.95
 30
0.0
 40
0.07
  1
DRAWN: ___   DATE: ________
  7
SURVEY
 11
13.65
 21
0.95
 31
0.0
100
AcDbText
  0
TEXT
  5
1E4
330
195
100
AcDbEntity
 67
1
  8
V-ANNO-TTLB
100
AcDbText
 10
13.65
 20
0.68
 30
0.0
 40
0.08
  1
SHEET 1 OF 1
  7
SURVEY
 11
13.65
 21
0.68
 31
0.0
100
AcDbText
  0
VIEWPORT
  5
1E5
330
195
100
AcDbEntity
 67
1
  8
G-ANNO-VPRT
100
AcDbViewport
 10
7.0
 20
5.5
 30
0.0
 40
12.5
 41
9.5
 68
2
 69
3
 12
5051.499413220856
 22
8036.712537884319
 13
0.0
 23
0.0
 14
10.0
 24
10.0
 15
10.0
 25
10.0
 16
0.0
 26
0.0
 36
1.0
 17
0.0
 27
0.0
 37
0.0
 42
50.0
 43
0.0
 44
0.0
 45
285.0
 50
0.0
 51
0.0
 72
100
 90
16384
  1

281
0
 71
0
 74
0
110
0.0
120
0.0
130
0.0
111
1.0
121
0.0
131
0.0
112
0.0
122
1.0
132
0.0
 79
0
146
0.0
282
0
  0
ENDSEC
  0
SECTION
  2
OBJECTS
  0
DICTIONARY
  5
A
330
0
100
AcDbDictionary
281
1
  3
ACAD_COLOR
350
B
  3
ACAD_GROUP
350
C
  3
ACAD_LAYOUT
350
D
  3
ACAD_MATERIAL
350
E
  3
ACAD_MLEADERSTYLE
350
F
  3
ACAD_MLINESTYLE
350
10
  3
ACAD_PLOTSETTINGS
350
11
  3
ACAD_PLOTSTYLENAME
350
12
  3
ACAD_SCALELIST
350
14
  3
ACAD_TABLESTYLE
350
15
  3
ACAD_VISUALSTYLE
350
16
  3
EZDXF_META
350
2D
  0
DICTIONARY
  5
B
330
A
100
AcDbDictionary
281
1
  0
DICTIONARY
  5
C
330
A
100
AcDbDictionary
281
1
  0
DICTIONARY
  5
D
330
A
100
AcDbDictionary
281
1
  3
Model
350
1A
  3
TOPO SHEET
350
198
  0
DICTIONARY
  5
E
330
A
100
AcDbDictionary
281
1
  3
ByBlock
350
1F
  3
ByLayer
350
20
  3
Global
350
21
  0
DICTIONARY
  5
F
330
A
100
AcDbDictionary
281
1
  3
Standard
350
2C
  3
SRV-30
350
53
  0
DICTIONARY
  5
10
330
A
100
AcDbDictionary
281
1
  3
Standard
350
22
  0
DICTIONARY
  5
11
330
A
100
AcDbDictionary
281
1
  0
ACDBDICTIONARYWDFLT
  5
12
330
A
100
AcDbDictionary
281
1
  3
Normal
350
13
100
AcDbDictionaryWithDefault
340
13
  0
ACDBPLACEHOLDER
  5
13
330
12
  0
DICTIONARY
  5
14
330
A
100
AcDbDictionary
281
1
  0
DICTIONARY
  5
15
330
A
100
AcDbDictionary
281
1
  0
DICTIONARY
  5
16
330
A
100
AcDbDictionary
281
1
  0
LAYOUT
  5
1A
330
D
100
AcDbPlotSettings
  1

  4
A3
  6

 40
7.5
 41
20.0
 42
7.5
 43
20.0
 44
420.0
 45
297.0
 46
0.0
 47
0.0
 48
0.0
 49
0.0
140
0.0
141
0.0
142
1.0
143
1.0
 70
1024
 72
1
 73
0
 74
5
  7

 75
16
 76
0
 77
2
 78
300
147
1.0
148
0.0
149
0.0
100
AcDbLayout
  1
Model
 70
1
 71
0
 10
0.0
 20
0.0
 11
420.0
 21
297.0
 12
0.0
 22
0.0
 32
0.0
 14
1e+20
 24
1e+20
 34
1e+20
 15
-1e+20
 25
-1e+20
 35
-1e+20
146
0.0
 13
0.0
 23
0.0
 33
0.0
 16
1.0
 26
0.0
 36
0.0
 17
0.0
 27
1.0
 37
0.0
 76
1
330
17
  0
MATERIAL
  5
1F
102
{ACAD_REACTORS
330
E
102
}
330
E
100
AcDbMaterial
  1
ByBlock
  2

 70
0
 40
1.0
 71
1
 41
1.0
 91
-1023410177
 42
1.0
 72
1
  3

 73
1
 74
1
 75
1
 44
0.5
 73
0
 45
1.0
 46
1.0
 77
1
  4

 78
1
 79
1
170
1
 48
1.0
171
1
  6

172
1
173
1
174
1
140
1.0
141
1.0
175
1
  7

176
1
177
1
178
1
143
1.0
179
1
  8

270
1
271
1
272
1
145
1.0
146
1.0
273
1
  9

274
1
275
1
276
1
 42
1.0
 72
1
  3

 73
1
 74
1
 75
1
 94
63
  0
MATERIAL
  5
20
102
{ACAD_REACTORS
330
E
102
}
330
E
100
AcDbMaterial
  1
ByLayer
  2

 70
0
 40
1.0
 71
1
 41
1.0
 91
-1023410177
 42
1.0
 72
1
  3

 73
1
 74
1
 75
1
 44
0.5
 73
0
 45
1.0
 46
1.0
 77
1
  4

 78
1
 79
1
170
1
 48
1.0
171
1
  6

172
1
173
1
174
1
140
1.0
141
1.0
175
1
  7

176
1
177
1
178
1
143
1.0
179
1
  8

270
1
271
1
272
1
145
1.0
146
1.0
273
1
  9

274
1
275
1
276
1
 42
1.0
 72
1
  3

 73
1
 74
1
 75
1
 94
63
  0
MATERIAL
  5
21
102
{ACAD_REACTORS
330
E
102
}
330
E
100
AcDbMaterial
  1
Global
  2

 70
0
 40
1.0
 71
1
 41
1.0
 91
-1023410177
 42
1.0
 72
1
  3

 73
1
 74
1
 75
1
 44
0.5
 73
0
 45
1.0
 46
1.0
 77
1
  4

 78
1
 79
1
170
1
 48
1.0
171
1
  6

172
1
173
1
174
1
140
1.0
141
1.0
175
1
  7

176
1
177
1
178
1
143
1.0
179
1
  8

270
1
271
1
272
1
145
1.0
146
1.0
273
1
  9

274
1
275
1
276
1
 42
1.0
 72
1
  3

 73
1
 74
1
 75
1
 94
63
  0
MLINESTYLE
  5
22
102
{ACAD_REACTORS
330
10
102
}
330
10
100
AcDbMlineStyle
  2
Standard
 70
0
  3

 62
256
 51
90.0
 52
90.0
 71
2
 49
0.5
 62
256
  6
BYLAYER
 49
-0.5
 62
256
  6
BYLAYER
  0
MLEADERSTYLE
  5
2C
102
{ACAD_REACTORS
330
F
102
}
330
F
100
AcDbMLeaderStyle
179
2
170
2
171
1
172
0
 90
2
 40
0.0
 41
0.0
173
1
 91
-1056964608
 92
-2
290
1
 42
2.0
291
1
 43
8.0
  3
Standard
 44
4.0
300

342
29
174
1
175
1
176
0
178
1
 93
-1056964608
 45
4.0
292
0
297
0
 46
4.0
 94
-1056964608
 47
1.0
 49
1.0
140
1.0
294
1
141
0.0
177
0
142
1.0
295
0
296
0
143
3.75
271
0
272
9
273
9
  0
DICTIONARY
  5
2D
330
A
100
AcDbDictionary
280
1
281
1
  3
CREATED_BY_EZDXF
350
2E
  3
WRITTEN_BY_EZDXF
350
1E8
  0
DICTIONARYVAR
  5
2E
330
2D
100
DictionaryVariables
280
0
  1
1.4.4 @ 2026-09-29T22:13:25.941698+00:00
  0
MLEADERSTYLE
  5
53
102
{ACAD_REACTORS
330
F
102
}
330
F
100
AcDbMLeaderStyle
179
2
170
2
171
1
172
0
 90
2
 40
0.0
 41
0.0
173
1
 91
-1056964608
 92
-2
290
1
 42
0.8
291
1
 43
3.0
  3
SRV-30
 44
1.7999999999999998
300

342
2F
174
1
175
1
176
0
178
1
 93
-1056964608
 45
2.4
292
0
297
0
 46
4.0
 94
-1056964608
 47
1.0
 49
1.0
140
1.0
294
1
141
0.0
177
0
142
1.0
295
0
296
0
143
3.75
271
0
272
9
273
9
  0
LAYOUT
  5
198
330
D
100
AcDbPlotSettings
  1

  2
DWG To PDF.pc3
  4
ANSI_B_(17.00_x_11.00_Inches)_(17.00_x_11.00_Inches)
  6

 40
0.0
 41
0.0
 42
0.0
 43
0.0
 44
431.79999999999995
 45
279.4
 46
0.0
 47
0.0
 48
0.0
 49
0.0
140
0.0
141
0.0
142
1.0
143
1.0
 70
672
 72
0
 73
0
 74
5
  7
monochrome.ctb
 75
16
 76
0
 77
2
 78
300
147
0.03937007874015748
148
0.0
149
0.0
100
AcDbLayout
  1
TOPO SHEET
 70
1
 71
3
 10
-0.0
 20
-0.0
 11
17.0
 21
11.0
 12
0.0
 22
0.0
 32
0.0
 14
1e+20
 24
1e+20
 34
1e+20
 15
-1e+20
 25
-1e+20
 35
-1e+20
146
0.0
 13
0.0
 23
0.0
 33
0.0
 16
1.0
 26
0.0
 36
0.0
 17
0.0
 27
1.0
 37
0.0
 76
1
330
195
331
199
  0
DICTIONARYVAR
  5
1E8
330
2D
100
DictionaryVariables
280
0
  1
1.4.4 @ 2026-09-29T22:13:25.953628+00:00
  0
ENDSEC
  0
EOF
